<?xml version="1.0" encoding="utf-8"?>
<svg version="1.1" xmlns:cc="http://creativecommons.org/ns#" xmlns:dc="http://purl.org/dc/elements/1.1/" xmlns:inkscape="http://www.inkscape.org/namespaces/inkscape" xmlns:rdf="http://www.w3.org/1999/02/22-rdf-syntax-ns#" xmlns:sodipodi="http://sodipodi.sourceforge.net/DTD/sodipodi-0.dtd" xmlns:svg="http://www.w3.org/2000/svg"
	 xmlns="http://www.w3.org/2000/svg" xmlns:xlink="http://www.w3.org/1999/xlink" viewBox="0 0 181.2 124.1" xml:space="preserve">
<path d="M35.9,87.8V67.5l8.1,0.3c8.9,0.3,11.3,1.3,13.4,5.3c1.5,2.9,1.5,9.4,0,12.3
	c-2,3.9-4.6,5.1-12.1,5.5l-6.7,0.4l-0.2,8.4c-0.2,6.8-0.4,8.4-1.3,8.4C36.1,108.1,35.9,105.2,35.9,87.8L35.9,87.8z M53.2,86.6
	c4-3.6,4.2-10.5,0.4-14.3c-1.8-1.8-2.6-2-8.7-2.2l-6.7-0.3v9.4v9.4h6.4C50.4,88.6,51,88.5,53.2,86.6z M69.4,107.6
	c-0.3-0.3-0.5-6.5-0.5-13.9c0-11.4,0.2-13.4,1.1-13.4c1,0,1.1,2,1.1,13.9C71.1,106.9,70.9,109.1,69.4,107.6L69.4,107.6z M85.4,107.2
	c-3-1.5-3.7-4-3.8-12.4c0-8.6,0.8-10.9,4.5-13.1c4.5-2.7,11.1-0.5,13.1,4.4c0.6,1.4,1.1,4.1,1.1,6v3.4h-8.2h-8.2v3.7
	c0,5.7,1.4,6.7,9.4,6.7c5.2,0,6.4,0.2,6.4,1.1s-1.2,1.1-6.2,1.1C90,108.1,86.5,107.7,85.4,107.2L85.4,107.2z M98.1,90.9
	c0-7.1-7.3-10.8-12.1-6.1c-1.7,1.7-2.2,2.9-2.2,5.2v3.1h7.1H98v-2.2H98.1z M108.7,106.3v-1.9h13.5h13.5v1.9v1.9h-13.6h-13.4V106.3z
	 M134.9,106.3c0-1-1.9-1.1-12.8-1.1s-12.8,0.2-12.8,1.1c0,1,1.9,1.1,12.8,1.1S134.9,107.2,134.9,106.3z M68.9,69.5
	c0-1.2,0.4-1.9,1.1-1.9s1.1,0.7,1.1,1.9c0,1.2-0.4,1.9-1.1,1.9S68.9,70.7,68.9,69.5z M43,55.3c-1.7-0.6-3.1-1.1-3.2-1.1
	c-0.1,0-1-1.5-2.1-3.3c-1.7-3.1-1.8-3.8-1.8-14.7c0-12.8,0.7-15.3,4.8-18.3c2-1.4,3.5-1.7,10-1.9c6.5-0.2,7.7-0.1,7.7,0.9
	c0,0.9-1.5,1.2-7.5,1.4c-7.3,0.2-7.5,0.3-9.9,2.7l-2.5,2.4l-0.2,11.8c-0.2,11.4-0.2,11.9,1.5,14.4c2.4,3.6,4.6,4.5,10.9,4.5h5.4
	v-9.7v-9.7h-2.6c-1.8,0-2.6-0.3-2.6-1.1c0-0.8,0.9-1.1,3.7-1.1c4.7,0,4.6,0,4.4,13.5l-0.2,10.1l-6.4,0.2C48.3,56.3,45,56,43,55.3
	L43,55.3z M73.5,55.6c-3.5-1-4.6-4.2-4.6-12.9c0-6.1,0.2-7.4,1.7-9.6c2-3,4.5-4.4,7.9-4.4c5.6,0,9.1,4.3,9.1,11.2v3.8h-8.2h-8.2v3.4
	c0,2.6,0.4,3.8,1.8,5.3c1.7,1.7,2.4,1.8,8.3,1.8c4.8,0,6.4,0.2,6.2,0.9C87.1,56.3,77.1,56.6,73.5,55.6L73.5,55.6z M85.4,38.3
	c0-6.3-7-9.7-11.7-5.7c-1.5,1.3-2.1,2.7-2.4,5.3l-0.4,3.5h7.2h7.2L85.4,38.3z M102.1,55.3c-3.3-1.4-3.9-3.6-3.9-12.5
	c0-8.3,0.9-10.7,4.5-12.9c6.6-4,14.2,1.2,14.2,9.7v4h-8.2h-8.2v3.6c0,5.7,1,6.5,8.9,6.8c5.2,0.2,6.8,0.5,6.8,1.3
	C116.2,56.8,105.4,56.7,102.1,55.3L102.1,55.3z M114.4,37.8c-0.3-2.5-1-4.1-2.4-5.3c-4.5-4-11.6-0.5-11.6,5.8v3.1h7.2h7.3
	L114.4,37.8z M126.6,35.8c0-17.2,0.2-19.9,1.2-19.9s1.1,1.8,1.1,12c0,9.1,0.2,12,0.9,12c0.5,0,3.8-1.5,7.2-3.4
	c3.4-1.8,6.7-3.4,7.3-3.4c2.1,0,1,1.5-2.7,3.5c-2.1,1.1-3.7,2.2-3.5,2.5c1.7,3,7.3,15.1,7.3,15.7c0,0.5-0.4,0.9-1,0.9
	c-0.6,0-2.6-3.5-4.7-7.9c-2.1-4.4-3.8-7.9-4-7.9s-1.8,0.8-3.4,1.7l-3,1.7l-0.2,6.2c-0.2,4.8-0.5,6.2-1.3,6.2
	C126.8,55.6,126.6,52.7,126.6,35.8L126.6,35.8z"/>
</svg>
