<svg xmlns="http://www.w3.org/2000/svg" viewBox="643 223 634 634"><g style="fill:rgb(183,28,28)"><path d="M962.65 857.24c-81.99.26-153.74-26.79-214.38-81.71-70.65-63.98-104.88-145.05-104.87-239.58.01-81.76 31.14-152.78 86.18-212.32 66.53-71.98 151.57-103.69 248.06-99.85 80.66 3.21 150.76 35.92 208.03 93.55 62.78 63.17 93.19 140.48 91.87 228.8-1.31 87.11-33.9 162.6-97.41 222.83-60.65 57.51-133.04 88.29-217.48 88.28zM653.63 542.61c.72 83.12 31.09 156.21 91.07 215.91 59.09 58.81 131.69 88.92 215.04 89.12 80.25.19 151.09-27.23 210.03-82.18 62.48-58.25 95.3-131.03 97.92-216.18 2.56-83.53-25.15-157-82.33-218.1-59.43-63.51-133.79-96.54-220.53-97.79-85.87-1.24-160.64 29.31-221.27 90.24-59.34 59.63-89.3 132.48-89.93 218.98z"/><path d="M1035.85 744.4c-2.58-.44-5.14-1.05-7.74-1.27-3.9-.32-7.15-.15-10.48 3.39-7.92 8.42-15.72 12.69-27.98 6.82-5.49-2.63-10.23-2.45-15.69 1.78-7.88 6.09-17.25 6.91-26.56-.22-4.59-3.51-9.06-4.67-14.81-1.95-11.69 5.53-18.34 4.23-27.24-5.3-4.18-4.47-8.28-5.43-14.06-3.95-11.25 2.89-19.47-.85-25.3-11.06-2.75-4.82-6.44-7.11-12.02-6.68-11.76.91-19.9-3.82-23.78-15.33-1.71-5.06-4.43-8.16-10.78-8.94-13.53-1.68-18.39-9.11-20.28-22.03-.77-5.29-4.36-6.79-8.24-8.67-3.34-1.62-6.78-3.24-9.71-5.47-4.49-3.41-5.51-8.72-6.11-13.96-.3-2.63.5-5.49-.22-7.95-.7-2.4-2.21-5.41-4.23-6.43-10.88-5.52-16.23-15.99-13.25-27.79 1.32-5.23.67-9.29-3.49-13.32-3.29-3.18-5.69-7.51-7.75-11.7-2.6-5.3-.61-10.92 1.77-15.49 2.88-5.55 2.18-9.96-1.17-14.48-7.05-9.51-6.85-18.95.28-28.18 3.57-4.62 3.58-9.05 1.09-14.12-2.92-5.95-4.59-12.29-1.01-18.54 1.84-3.22 4.09-6.46 6.88-8.82 4.14-3.51 5.27-7.25 4.08-12.49-3.09-13.52-.48-20.39 11.63-27.59 3.75-2.23 5.61-5.6 5.37-10.2-.8-15.57 5.42-20.67 17.95-25.62 2.52-.99 5.44-4.33 5.78-6.9 1.86-14.43 8.16-20.61 22.21-22.92 4.2-.69 7.1-2.54 8.48-6.86 3.66-11.47 9.46-17.87 24.51-17.13 5.59.27 9.3-2.16 12.01-6.81 6.22-10.68 13.76-13.84 25.86-10.81 4.98 1.25 9 .82 12.85-3.43 9.58-10.58 17.31-11.16 28.94-5.71 4.63 2.17 8.17 1.82 12.51-1.61 9.59-7.58 19.48-6.96 29.6.47 3.4 2.49 6.78 3.59 11.35 1.52 7.11-3.21 14.72-6.26 22.32-.81 2.92 2.09 6.46 3.87 8.35 6.71 2.8 4.2 6.34 3.62 10.16 3.37 4.59-.3 9.21-1.1 13.77-.82 6.18.39 10.3 5.03 13.04 9.7 3.75 6.37 8.19 8.85 15.58 8.34 9.7-.66 16.57 4.21 19.88 13.51 2.53 7.1 6.98 10.66 14.5 11.43 8.78.9 14.28 6.44 16.33 15.27.41 1.74 1 3.46 1.22 5.23.68 5.38 3.88 7.79 8.9 9.52 9.91 3.43 15.85 10.42 14.85 20.33-.67 6.68.72 12 7.36 15.56 11.7 6.27 13.18 15.56 10.34 26.52-1.23 4.73-.45 8.12 3.59 11.47 9.37 7.79 10.97 17.28 5.92 28.62-2.13 4.79-2.49 9.2 1.55 13.85 7.19 8.27 7.34 19.78.19 27.85-5.08 5.73-3.29 11.12-.81 16.55 4.42 9.66 2.06 18.22-5.36 24.4-5.95 4.96-6.69 10.04-4.69 16.37 3.39 10.74-3.29 19.97-11.95 24.61-4.52 2.42-6.51 5.63-6.14 10.54 1.19 15.63-4.97 20.17-17.85 25.4-2.14.87-4.01 3.53-5.02 5.8-1.43 3.22-1.85 6.87-2.89 10.28-2.87 9.44-10.66 12.38-19.19 13.59-5.04.72-7.45 2.72-9.26 7.66-4.25 11.63-9.52 17.19-22.81 16.41-6.33-.37-10.49 2.14-13.8 7.39-5.5 8.79-9.34 10.7-19.33 11.1zm105.44-297.65c-1.41-1.45-3.18-4.23-5.7-5.71-9.52-5.59-15.36-13.09-15.81-24.61-.1-2.5-2.59-6.59-4.65-7.06-11.89-2.75-19.11-9.71-22.72-21.23-.75-2.39-3.46-5.67-5.54-5.88-12.61-1.26-21.8-6.86-27.66-18.31-.98-1.91-4.71-3.99-6.65-3.57-12.45 2.68-21.51-2.91-28.95-11.61-2.79-3.26-5.27-3.91-8.63-2.67-10.7 3.94-20.4 1.72-28.85-5.24-3.85-3.17-6.65-3.01-10.85-1.05-9.99 4.66-20.13 5.08-30.07-.7-3.27-1.9-6.13-1.43-9.35 1.29-6.94 5.86-14.88 9.2-24.36 6.85-6.04-1.5-11.17-2.95-16.31 4.17-5.29 7.35-14.55 10.89-24.05 9.36-5.53-.89-7.79.99-10.32 5.37-5.59 9.71-14.19 15.37-25.59 15.74-3.63.12-5.39 2.09-6 4.79-2.78 12.29-10.78 19.34-22.36 22.82-3.39 1.02-4.69 2.94-4.92 6.3-.76 10.92-5.61 19.33-15.55 24.42-4.05 2.08-5.91 5-5.51 9.86.92 11.35-3.16 20.62-12.13 27.97-1.74 1.43-2.65 5.39-2.14 7.81 2.31 10.98 1.41 20.98-5.86 30.12-1.52 1.91-2.57 5.95-1.58 7.82 5.92 11.19 5.84 22.03-.16 33.01-1.6 2.92-1.26 5.23 1.08 7.98 6.18 7.26 9.48 15.43 7.03 25.35-1.35 5.47-2.33 11.12 3.8 15.21 2.47 1.65 4.18 4.62 5.86 7.23 4.1 6.37 4.69 13.55 4.16 20.88-.19 2.69.45 4.29 3.19 5.69 10.82 5.54 17.22 14.24 17.87 26.72.19 3.65 2.48 5.16 5.87 6.18 10.72 3.22 18.42 9.76 21.07 21.1.81 3.48 2.58 5.49 6.23 5.83 12.16 1.15 21.3 6.85 26.81 17.96 1.81 3.64 4.68 4.55 8.64 3.84 2.8-.5 5.79-.35 8.65-.07 7.63.76 13.03 5.27 17.86 10.83 2.32 2.66 4.58 5.39 9.16 3.54 11.12-4.47 21.12-1.75 30.07 5.76 2.62 2.2 5.39 2.92 8.59 1.14 10.28-5.74 20.57-5.8 30.92-.07 3.14 1.74 5.81 1.32 8.97-1.08 8.46-6.44 17.63-10.17 28.72-6.26 4.34 1.53 8.64.65 11.9-4.27 6-9.04 16.09-10.58 25.67-9.86 5.15.39 6.86-.78 8.98-4.74 5.14-9.59 13.23-15.53 24.19-16.62 4.44-.44 6.37-2.19 7.94-6.4 3.78-10.14 10.27-17.99 21.45-20.76 3.45-.85 4.77-3.16 5.38-6.7 1.93-11.22 6.28-21 17.79-25.67 3.19-1.3 4.54-3.46 4.16-6.94-.25-2.3-.01-4.66-.06-6.99-.11-5.17.97-9.43 5.42-13.13 3.8-3.16 6.32-7.86 9.33-11.93.34-.46.25-1.29.25-1.95.02-7.18-.51-14.41.21-21.52.42-4.15 2.05-8.68 4.54-11.98 2.68-3.56 2.73-6.4.92-9.89-5.12-9.87-5.38-19.64.33-29.41 1.96-3.36 2.2-6.3-.82-9.86-6.21-7.29-10.51-16.04-6.92-25.6 3.04-8.11-.75-11.93-5.9-16.83-7.01-6.64-8.97-15.5-7.04-26.77zm5.31 186.22c8.96-2.67 16.83-9.23 11.86-25.96-5.34-.16-8.14 4.21-9.97 7.62-2.93 5.48-5.82 11.78-1.89 18.34zm-119.71-288.98c4.22 9.72 15.02 13.19 23.63 11.84.9-.14 2.39-2.57 2.09-3.32-4.25-10.5-15.23-14.51-25.72-8.52zm-131.77-.28c-11.1-5.38-23.32-1.82-26.93 10.78 7.55 4.72 18.35.49 26.93-10.78zm50.97 403.61c8.34 9 18.24 9.71 26.88 3.16 2.57-1.95 2.92-3.63-.49-5.37-9.18-4.67-17.82-4.14-26.39 2.21zm-51.6-10.44c-3.07-9.38-21.03-15.66-26.36-9.8 5.33 12.07 17.12 17.06 26.36 9.8zm152.68-11.91c-7.93-.05-13.99 3.65-19.08 9.42-1.62 1.84-1.55 3.2.83 4.02 8.44 2.95 17.47 1.47 22.14-6.75 3.22-5.68 2.65-6.65-3.89-6.69zm120.58-169.88c9.45-7.25 10.25-22.27-.16-28.97-6.52 7.83-7.4 18.56.16 28.97zm-79.72 149.47c-10.36-1.67-21.91 6.03-23.88 15.74 9.48 5.22 20.13-1.63 23.88-15.74zm77.89-190.41c6.16-4.19 6.17-10.79 4.7-16.33-1.12-4.21-5.56-7.53-8.53-11.24-1.01.81-2.65 1.45-2.95 2.47-2.78 9.56-.45 17.86 6.78 25.1zm-401.77-39.42c10.28-5.65 12.38-13.85 11.88-23.47-.17-3.18-1.34-3.56-4.09-2.29-7.55 3.46-14.43 13.64-7.79 25.76zm353.77 202.72c-10.32-1.21-19.31 7.3-20.63 19.12 12.13 1.67 17.36-3.1 20.63-19.12zM753.56 554.78c7.39-7.81 7.32-21.23-.05-28.51-9.23 6.09-9.73 21.72.05 28.51zm50.95-150.57c10.12-.28 19.14-9.04 19.96-19.93-12.58-2.41-22.1 8.48-19.96 19.93zm182.65-69.9c3.74 7.45 16.54 10.6 24.89 7.8 3.5-1.17 3.8-2.53 1.42-5.19-7.24-8.11-15.82-9.09-26.31-2.61zm178.65 232.43c-6.99 8.66-10.65 17.55-5.09 28.15 5.26-1.65 10.11-7.68 10.86-15.35.48-4.77-1.25-9.49-5.77-12.8zm-331.4 137.43c-1.15 11.38 9.03 19.63 23.38 16.35-3.4-10.49-12.49-16.64-23.38-16.35zm306.44-266.47c2.9-7.45.34-13.74-4.15-19.11-3.03-3.63-7.42-5.6-12.59-4.12 5 17.13 6.12 18.7 16.74 23.23zm-23.61-33.11c-.35-14.86-7.84-22.2-20.05-20.05.4 11.22 10.56 19.13 20.05 20.05zm-156.98-64.7c4.52-1.59 8.8-2.96 12.94-4.67.69-.29 1.43-2.58 1.04-3.04-5.71-6.91-19.24-7.58-25.45-1.52-2.14 2.08-2.66 3.78.49 5.08 3.52 1.46 7.13 2.71 10.98 4.15zm200.55 124.79c-.62-7.91-6.11-13.24-11.88-16.09-.71-.35-3.03.64-3.12 1.24-1.05 6.77-.29 13.33 4.36 18.68 1.92 2.21 4.76 3.61 7.19 5.38l3.45-9.21zM987.14 746.77c11.48 6.68 19.24 5.38 26.69-3.63 2.09-2.53.99-3.67-1.15-4-4.34-.67-8.99-1.76-13.11-.85-4.81 1.06-9.87 3.12-12.43 8.48zM796.78 666.6c1.49-9.8-8.17-23.06-16.6-22.8-.81 15.57 5.23 24.03 16.6 22.8zm.04-252.18c-9.79-1.31-20.25 8.37-16.04 23.35 10.97-4.44 16.53-12.4 16.04-23.35zm137.06 331.57c-6.41-8.31-19.82-10.69-27.76-4.93 8.81 11.42 20.84 13.56 27.76 4.93zm153.93-369.53c-.45-10.85-13.44-21.52-23.71-15.47 1.87 9.14 15.05 18.35 23.71 15.47zm52.65 266.83c-8.82 3.87-14.87 9.67-15.73 20.01-.31 3.65 1.26 4.14 3.76 3.62 10.98-2.26 16.37-16.06 11.97-23.63zM760.33 485.93c-11.84 7.57-13.37 18.05-5.3 27.95 7.9-4.25 10.89-20.19 5.3-27.95zm15.32 146.88c1.97-12.87-3.04-20.03-8.67-24.49-3.41-2.7-4.46-.57-4.84 2.03-.45 3.08-.19 6.27-.12 9.42.13 5.94 7.13 12.72 13.63 13.04zm158.24-298.98c-12.58-7.57-22.07-3.2-27.73 6.34 9.68 5.82 24.81 2.36 27.73-6.34zM824.74 695.85c-3-10.72-8.88-18.07-20.45-19.29-1.21 13.23 9.37 23.49 20.45 19.29zm-69.99-128.93c-7.61 9.03-4.94 24.75 5.76 27.93 5.17-6.19 2.74-22.61-5.76-27.93zm79.54-190.22c10.98.98 22.45-7.54 22.34-16.34-14.22-1.61-23.22 4.84-22.34 16.34zM1038.29 277.29l-2.06 7.95c2.62.76 5.23 1.48 7.8 2.28 6.31 1.95 6.49 2.52 1.93 6.98-4.24 4.14-8.61 8.15-13.23 12.51 4.5 3.36 8.86 6.62 13.21 9.87-4.96 6.34-6.67 6.89-11.21 1.09-5.71-7.28-11.88-8.6-20.33-5.46-2.72 1.01-6.64 3.04-10.18-.18-.93-.85-3.77.79-5.56.42-4.75-.97-7.24-4.45-8.88-9.21 10.15.24 8.49-7.83 10.55-14.56-2.44 0-4.54.31-6.48-.12-1.09-.24-2.78-1.91-2.63-2.61.25-1.21 1.58-2.92 2.7-3.13 8.38-1.55 10.13-3.09 10.91-11.3.11-1.13-1.23-2.78-2.34-3.54-1.5-1.03-3.43-1.43-4.88-3.26 2.56.36 5.11.72 7.89 1.11.95-3.04 1.52-5.96 2.81-8.51.6-1.2 2.79-2.56 3.89-2.3 1.16.28 1.98 2.35 2.76 3.74.28.5.19 1.38-.05 1.96-1.75 4.2-1.8 7.76 4.44 9.46-5.79.69-9.7 4.73-8.99 9.16.21 1.31 3.14 2.19 4.97 3.35-11.24 5.78-8.7 17.86-12.28 28.41 6.33-2.02 11.99-3.41 17.21-5.77 1.29-.58 1.88-4.42 1.55-6.57-.85-5.58-2.39-11.06-3.81-17.22 3.7.41 7.05.79 10.52 1.17.75-2.35 1.42-4.46 2.26-7.1-3.12-1.33-6.28-2.67-9.44-4.02.09-.31.17-.62.26-.93l9.7 1.13c3.87-10.92 3.87-10.92 9.94-9.35-.78 3.88-1.57 7.8-2.34 11.6 5.51 2.31 13.07-2.74 16.59 6.33-6.13-1.2-11.55-2.27-17.2-3.38zm-10.47 23.78c4.33-3.8 8.16-7.15 11.98-10.5-.26-.53-.53-1.05-.79-1.58-5.53-1.44-11.06-2.88-17.49-4.56 2.33 6.15 4.21 11.13 6.3 16.64zM829.96 334.54c-5.76 5.67-11.49 11.31-17.57 17.28l-10.44-11.52c-1.71.63-3.32 1.22-6.2 2.28 2.7-3.79 4.55-6.97 1.04-9.88-.65-.54-2.02-.2-4.05-.33-1.99-6.03-4.61-13.09-6.4-20.35-.29-1.18 3.16-3.28 5.33-5.39l2.87 6.56c5.77-3.72 11.58-6.93 14.61-13.51 1.49-3.24 4.2-3.46 8.17-1.57-6.84 8.55-18.81 12.01-23.37 22.98.31.46.61.92.92 1.38 3.26-2.21 6.61-4.31 9.77-6.67 3.55-2.64 6.81-5.69 10.46-8.16.94-.64 3.24-.28 4.29.48 1.53 1.1 2.85 2.82 3.65 4.55 1.84 4 4.32 3.83 6.58 2.15.48 2.69.22 6.2 1.77 8.49 1.41 2.08 4.77 2.85 7.16 4.13.1 2.17.82 5.49.22 8.56-.59 2.99-1.81 6.73-4.05 8.3-2.75 1.93-6.84 1.95-10.71 1.93 1.72-1.63 3.53-3.16 5.12-4.91 1.48-1.64 4.66-2.99.83-6.78zm-7.54 3.39-9.29-3.93c5.75-3.11 10.24-2.55 15.03.3-.91-2.98-2.1-5.72-3.68-8.2-1.47-2.3-3.25-2.89-5.63-.56-3.37 3.29-7.1 6.21-10.92 9.5 1.66 2.27 3.23 4.74 5.16 6.88.69.76 2.64 1.39 3.34.96 2.04-1.23 3.74-3.02 5.99-4.95zm-8.88-11.57c-3.79-1.35-7.03-2.5-10.89-3.88 6-3.28 11.28-2.33 16.96-.27-1.63-3.31-3.58-6.11-5.76-8.7-.4-.47-2.11-.5-2.68-.05-4.19 3.32-8.24 6.81-12.32 10.23 7.55 9.73 7.55 9.73 14.69 2.67zM1133.77 308.58c2.24 1.65 4.3 3.17 6.6 4.86-2.05 2.62-3.79 4.95-5.65 7.18-1.88 2.25-3.88 4.4-5.4 6.11 4.91 8.22 16.17 8.32 20.81 18.48-2.39-.54-3.58-.47-4.31-1.02-4.59-3.42-9.17-6.88-13.58-10.53-2.81-2.33-4.2-2.62-5.33 1.57-3.04 11.3-3.22 22.32 1.79 33.13.26.57.26 1.28.27 1.93.01.47-.18.95-.29 1.46-3.07-.35-6.08-.69-9.09-1.03-4.78-11.03-2.23-24.19 2.65-36.5-6.71 2.25-13.59 4.59-20.48 6.86-7.54 2.48-14.34-.1-21.28-3.42 14.73.7 27.64-3.33 39.15-13.8-5.97-5.14-11.76-10.12-17.55-15.1.2-.32.41-.65.61-.97 1.04.5 2.19.84 3.09 1.53 4.51 3.42 9 6.86 13.4 10.42 2.24 1.82 3.66 1.8 5.52-.75 2.61-3.58 5.8-6.72 9.07-10.41zM1190.23 697.77c-1.33 1.87-2.52 3.56-3.84 5.42-9.2-5.91-18.16-11.77-27.24-17.44-2.32-1.45-2.88-2.82-1.3-5.07 3.09-4.39 6.3-8.72 9.15-13.26 2.83-4.51 7.07-5.49 11.43-4.06 4.15 1.36 7.41 4.36 6.6 9.66-.12.78.08 1.61.16 2.85h17.4c-.24 5.58-2.8 8.03-7.87 8.02-3.59 0-7.24-.29-10.74.28-1.74.28-3.47 2-4.63 3.52-.29.38 1.46 2.71 2.64 3.73 2.44 2.12 5.12 3.98 8.24 6.35zm-17.52-11.24c2.05-3.37 4.21-6.27 5.57-9.5.57-1.35-.03-4.15-1.1-4.98-1.17-.9-3.93-1-5.27-.21-6.31 3.73-6.63 8.63-1.23 13.31.36.31.79.54 2.03 1.38zM736.8 679.52c6.61-3.76 12.22-6.96 18.17-10.35 1.07 1.64 2.18 3.35 3.54 5.43-9.84 5.83-19.16 11.4-28.58 16.8-.81.46-2.98.1-3.34-.54-.93-1.64-2.07-3.95-1.55-5.46 1.34-3.93 3.57-7.55 5.34-11.33 1.42-3.03 2.69-6.13 4.03-9.2-.33-.32-.66-.64-.99-.97-5.66 3.14-11.32 6.28-17.2 9.55-1.25-1.67-2.28-3.03-3.67-4.88 4.42-2.86 8.52-5.72 12.83-8.23 4.61-2.69 9.38-5.12 14.17-7.5 1.61-.8 4.2-2.04 5.09-1.38 2.55 1.89 3.02 4.7 1.32 7.84-2.94 5.43-5.61 11.01-8.33 16.56-.39.8-.42 1.78-.83 3.66zM1102.12 779.09c-2.97 4.22-6.69 3.59-10.2 1.82-4.51-2.27-8.74-5.08-13.16-7.53-1.31-.73-2.85-1.04-5.55-2 3 5.93 5.37 10.54 7.66 15.2 1.02 2.07 2.21 3.97-1.12 5.6-3.16 1.54-3.8-.63-4.74-2.4-4.24-7.92-8.49-15.84-12.45-23.9-.76-1.55-.21-3.74-.26-5.64 2.41-.07 5.26-.99 7.16-.04 5.51 2.77 10.62 6.35 15.95 9.5 1.17.7 2.61.96 5.14 1.85-3.79-7.4-6.99-13.68-10.2-19.96 3.53-3.81 5.01-3.78 7.51.77 4.85 8.86 9.52 17.83 14.26 26.73zM890.65 296.55c-2.8 4.72-5.14 8.65-7.48 12.57-.3-.13-.59-.25-.89-.38 1.26-7.25 2.3-14.54 3.87-21.72.67-3.07 1.08-4.51-2.86-3.26-1.55.5-3.4.08-5.31-.38 3.54-2.81 13.13-1.01 7.12-10.39-2.81.46-5.82.94-8.83 1.43l-.48-.72c1.31-1.01 2.63-2.02 3.94-3.02 3.19-2.43 6.42-4.8 9.56-7.29 3.36-2.67 6.54-3.51 10.11.86-5.9 2.99-8.11 7.38-4.64 13.7h8.29c.07.23.14.46.21.7-2.72 1.1-5.43 2.2-8.05 3.26 2.02 5.46 10.64 3.34 10.99 11.65-3.09-1.18-5.47-2.08-8.85-3.37 1.49 7.7 2.88 14.83 4.22 21.97.24 1.28.75 2.81.29 3.86-.53 1.2-2.05 2.84-3.03 2.77-1.33-.1-3.37-1.42-3.69-2.6-1.68-6.19-2.91-12.5-4.49-19.64zM775.8 713.81c-1.45-2.93-3.66-5.31-3.56-7.59.33-7.29-3.61-11.95-10.81-11.15-5.47.6-9.28 4.05-11.72 8.77-2.23 4.31-1.15 8.63 1.9 12.01 1.47 1.63 4.11 2.43 6.38 3 .92.24 2.63-.87 3.25-1.83.4-.61-.21-2.46-.94-3.11-4.02-3.56-2.33-5.44 1.9-6.89 2.56 3.12 5.2 6.21 7.66 9.43.6.79 1.13 2.24.81 3.03-2.07 5.14-12.12 8.37-17.1 5.66-7.74-4.23-13.03-13.96-11.52-21.17 1.65-7.91 10.12-15.2 18.97-15.93 7.68-.63 12.4 3.99 16.36 9.83 3.36 4.95 3.65 9.7-1.58 15.94zM706.4 399.18c7.08 3.58 14.05 7.11 20.92 10.59 4.45-6.16 1.37-16.57 10.69-19.68.5.27 1.01.54 1.51.82-1.46 2.81-2.89 5.64-4.37 8.44-1.66 3.15-3.51 6.22-4.94 9.48-.34.78.34 2.72 1.11 3.15 7.5 4.22 15.12 8.22 22.89 12.4 2.36-6.84 4.57-13.25 6.78-19.66 1.26-3.64 3.84-5.36 8.34-5.66-9.78 18.41-19.26 36.25-28.74 54.09l-1.38-.3c.17-1.05.1-2.23.56-3.13 2.52-4.95 5.02-9.91 7.82-14.7 1.9-3.25 1.54-5.06-2.02-6.9-12.74-6.57-25.22-13.63-38.01-20.11-4.89-2.5-4.61-4.98-1.16-8.83zM772.2 745.42c-5.27-4.8-5.08-4.64-.92-9.29 5.58-6.23 10.86-12.73 16.22-19.14.96-1.14 1.71-2.45 2.75-3.96 2.38 2.24 3.92 3.68 5.51 5.17-1.05 1.55-1.98 3.01-3.01 4.4-1.53 2.07-4.87 4.85-4.37 5.99 1.31 3 4.18 5.36 6.62 7.78.84.84 2.24 1.13 3.15 1.56 3.2-3.43 6.17-6.61 9.35-10.01 1.63 1.61 3.14 3.1 4.94 4.88-6.82 7.92-13.54 15.53-20.02 23.33-3.13 3.77-5.59 3.45-8.31-1.01 2.2-2.76 4.35-5.94 7.01-8.62 2.35-2.37 2.32-4.08-.18-6.09-2.18-1.74-4.14-3.78-6.47-5.27-.69-.45-2.64.14-3.4.88-3.02 2.94-5.79 6.1-8.87 9.4zM918.25 799.29c-4.31-.89-8.83-1.49-13.14-2.81-3.21-.98-4.93.68-4.86 2.94.07 2.13-3.85 5.95 2.01 6.75 3.99.54 7.84 2.08 11.82 2.77 3.36.58 4.57 2.16 3.52 6.17-2.52-.35-5.19-.64-7.83-1.12-5.28-.96-10.6-1.8-15.77-3.21-1.25-.34-2.95-2.87-2.73-4.08 1.68-9.44 3.86-18.78 5.72-28.19.63-3.17 2.51-4.03 5.29-3.47 6.21 1.26 12.44 2.51 18.56 4.14 1.26.33 2.09 2.28 3.12 3.49-1.41.78-2.88 2.32-4.2 2.19-3.87-.37-7.81-1.01-11.46-2.3-3.2-1.14-4.51.45-5.15 2.71-.77 2.72-.27 5.2 3.37 5.75 3.04.46 6.03 1.69 9.05 1.76 5.33.12 4.38 2.76 2.68 6.51zM726.25 605.71c-11.34 2.5-22.86 5.04-34.35 7.57-2.18-6.97-2.27-7.63 6.86-8.93 5.96-.84 6.75-3.14 5.26-7.97-.43-1.39-.88-2.83-.97-4.26-.19-3.15-2.1-3.42-4.49-2.91-3.77.8-7.51 1.71-11.2 2.55-2.64-5.52-1.92-6.71 3.46-7.8 8.11-1.65 16.14-3.67 24.23-5.45 1.73-.38 3.54-.41 5.41-.61.61 1.81 1.12 3.31 1.92 5.67-4.35 1.37-8.55 2.69-13.59 4.26.68 4 1.44 8.4 2.29 13.39 3.26-.44 6.24-.43 8.95-1.3 4.7-1.53 6.63.05 6.22 5.79zM981.24 817.56c-1.86.37-3.42.68-5.86 1.17-.79-4.88-1.71-9.76-2.34-14.67-.8-6.16-1.39-12.35-2.01-18.53-.29-2.96.81-3.54 6.34-3.4.44 1.39 1.03 2.86 1.36 4.38.65 3 .17 7.25 1.99 8.71 1.76 1.41 5.82-.25 8.86-.16 3.14.09 4.76-.88 4.44-4.25-.14-1.48.14-3.02-.09-4.48-1.04-6.65-1.08-6.64 5.99-5.94 1.23 11.4 2.47 22.89 3.7 34.31-5.67 2.68-7.35 1.72-7.66-3.87-.17-3.09-.8-6.15-1.22-9.22-.27-.17-.55-.48-.83-.49-15.05-.13-13.17-2.19-12.67 16.44zM1133.02 710.73c5.96-6.71 11.72-13.19 17.82-20.07 1.37 1.23 2.66 2.4 4.11 3.71-4.04 4.84-7.96 9.53-13.45 16.1 1.51.73 3.11 1.83 4.87 2.27 1.4.34 3.58.46 4.41-.35 3.4-3.32 6.41-7.04 9.6-10.65 4.24 2.14 4.65 4.38 1.23 7.19-1.02.84-2.08 1.74-2.81 2.82-5.32 7.92-7.9 5.35 1.54 13.54 4.38-4.71 8.79-9.44 13.4-14.38 1.31.84 2.63 1.69 4.73 3.04-6 6.84-11.93 13.58-18.26 20.8-9.36-8.25-18.26-16.13-27.19-24.02zM708.42 568.91c1.02-3.36 1.9-5.86 2.54-8.42.68-2.75 1.49-5.54 1.51-8.33.01-1.03-1.91-2.56-3.21-2.92-.63-.18-2.32 1.65-2.74 2.85-1.07 3.05-1.75 6.25-2.5 9.41-1.51 6.31-4.77 9.47-9.89 9.49-6 .03-10.33-3.4-11.91-9.46-2.03-7.76.37-15.17 6-17.48 1.51-.62 3.53 0 5.31.05-.58 1.85-.63 4.2-1.82 5.47-3.89 4.13-5.1 7.76-2.59 11.51.88 1.31 2.81 2.74 4.16 2.66 1.3-.08 3.05-1.85 3.58-3.26 1.08-2.85 1.46-5.96 2.16-8.96 1.46-6.24 6.12-10.19 11.21-9.52 4.76.62 8.71 6.07 8.77 12.1.1 9.89-1.53 12.53-10.58 14.81zM707.97 657.39c-3.42-3.68-3.13-6.94.07-9.9 4.65-4.31.56-8.23-.45-12.19-.82-3.22-3.18-4.84-6.75-4.32-4.58.66-5.63-2.22-5.86-6.46 1.22-.18 2.4-.49 3.58-.49 9.83-.04 19.67-.21 29.49.12 2.22.07 5.22 1.39 6.36 3.12 1.72 2.61.64 5.54-1.95 7.86-8.17 7.27-16.2 14.7-24.49 22.26zm8.31-16.74c3.21-3.09 5.88-5.65 9.46-9.09h-13.32c1.41 3.32 2.52 5.93 3.86 9.09zM1199.12 662.5c-.41-3.58 1.03-4.99 4.31-5.61 4.81-.91 8.03-4.74 7.44-8.73-.24-1.64-1.53-3.66-2.93-4.42-.97-.53-3.34.4-4.4 1.4-2.75 2.57-5.18 5.5-7.64 8.37-2.06 2.41-9.14 3.59-11.95 1.87-4.22-2.59-6.23-7.3-4.4-11.34 1.47-3.24 2.92-6.85 5.42-9.18 2.71-2.52 6.62-3.73 10.92-5.99-.09 5.22-1.15 7.95-5.13 9.2-1.6.5-3.68 1.71-4.14 3.08-.76 2.22-.37 4.84-.46 7.29 2.07-.77 4.39-1.19 6.14-2.41 2.15-1.5 3.96-3.55 5.68-5.57 5.05-5.91 9.17-5.19 14.54-3.12 3.3 1.28 5.65 8.22 4.37 13.18-2.12 8.19-7.9 15.04-17.77 11.98zM828.66 785.29c-2.13-1.05-3.73-1.84-5.66-2.79 0-1.15.01-2.47 0-3.79-.03-4.84-6.23-12.18-10.94-12.54-1.23-.09-2.58 1.11-3.84 1.78-3.14 1.7-6.25 3.24-9.67-1.24 4.34-3.52 8.64-7.17 13.11-10.61 4.53-3.48 9.08-6.96 13.91-9.98 1.59-.99 4.53-1.4 6.01-.57 1.63.92 3.42 3.74 3.17 5.43-1.69 11.27-3.92 22.45-6.09 34.31zm-1.05-32.75c-4.47 3.54-7.59 6.01-11.29 8.93 2.93 1.79 5.36 3.27 8.55 5.22.93-4.78 1.71-8.83 2.74-14.15zM1045.19 767.46c6.18-3.14 7-2.82 8.67 3.22 1.86 6.74 3.62 13.51 5.63 20.2 1.19 3.95.25 7.03-2.66 9.82-4.18 4.01-9.29 5.41-14.85 5.25-5.41-.15-7.93-4.2-9.69-8.48-2.35-5.71-4.23-11.61-6.22-17.47-1.99-5.88-1.71-6.31 4.75-7.67 2.38 6.72 4.82 13.53 7.2 20.35 1.37 3.91 2.9 7.12 8.2 6.41 5.4-.72 7.56-3.21 6.02-8.5-2.23-7.64-4.63-15.22-7.05-23.13zM961.49 792.13c-2.48.81-4.48 1.83-7.15-.93-2.24-2.31-5.15-5.6-9.37-3.64-4.4 2.04-6.73 5.74-6.89 10.5-.1 3.06-.32 6.53.92 9.14 2.76 5.78 9.65 6.55 14.3 1.87 2.42-2.42 4.55-3.39 7.34-.94-1.86 7.66-6.48 11.25-13.93 10.86-7.6-.39-15.33-6.55-15.63-13.09-.3-6.49-1.22-13.24 3.85-18.78 3.6-3.93 7.86-6.6 13.2-5.95 6.45.78 12.67 2.46 13.36 10.96zM1163 413.62c3.05 3.68 5.06 8.36 7.85 8.88 3.07.57 6.85-2.68 10.38-4.3-4.52-8.6-8.67-16.5-12.82-24.39.54-.31 1.08-.61 1.62-.92 1.83 3.05 3.72 6.08 5.48 9.17 2.01 3.55 3.86 7.18 5.85 10.74.45.8 1.07 1.91 1.79 2.07 4.1.88 8.25 1.52 13.26 2.4-3.58-6.99-6.76-13.18-9.94-19.38.58-.3 1.15-.6 1.73-.9 5.09 9.06 10.18 18.11 15.23 27.11-5.78 3.49-10.93-6.19-16.09.1 3.44 6.69 11.87 10.38 9.3 20.09-3.75-6.37-7.5-12.74-11.44-19.41-3.92 1.77-7.77 3.8-11.81 5.27-5.84 2.12-10.39-1.13-10.4-7.1 0-2.93.01-5.85.01-9.43z"/><path d="M940.06 290.61c-2.9 1.06-5.25 1.92-8.23 3.02.9 5.63 1.83 11.5 2.81 17.63-2.07.58-3.9 1.08-6.51 1.81-1.05-4.69-2.46-9.31-3.01-14.04-.42-3.68-1.63-4.44-5.1-3.6-5.15 1.25-10.43 2-15.65 2.96l-.39-1.75c5-1.2 9.95-2.93 15.02-3.46 4.36-.46 4.36-2.64 3.74-5.71-1.91-9.41-3.78-18.83-5.84-28.21-.45-2.06-1.54-4.03 1.75-4.19 2.37-.11 4.83-.78 5.47 3.17 1.3 8.02 3.4 15.91 4.83 23.91.89 4.99 2.45 8.51 8.49 7.27.58-.13 1.34.58 2.62 1.19zM1133.51 744.07c-2.79-6.79-5.12-12.68-7.63-18.49-2.48-5.75-1.89-7.55 3.95-10.3 3.74 10.59 7.57 21.13 11.11 31.77.49 1.48.19 3.95-.78 4.99-1.13 1.2-3.94 2.35-5.1 1.75-10.25-5.32-20.29-11.03-30.41-16.63 3.7-6.07 4.52-6.22 10.07-2.83 5.15 3.15 10.33 6.24 15.54 9.29.61.34 1.51.22 3.25.45zM1178.9 389.94c3.05-7.78 8.56-5.58 13.51-5.93 1.13 3.19 2.25 6.33 3.88 10.92 2.63-4.4 4.69-7.85 7.08-11.83 2.78 4.44 2.39 8.87-.39 12.16-5.54 6.55.5 10.79 2.62 15.53 2.11 4.7 6.97 3.32 11.03 2.9 1.91-.2 3.81-.57 5.9-.9.44 2.86.8 5.22 1.24 8.1-4.1-.65-8.16-1.29-12.23-1.93-.28.31-.56.63-.84.94 1.43 1.7 2.85 3.42 4.3 5.11 1.04 1.21 2.41 2.24 3.11 3.62 2.27 4.44.84 6.8-4.05 6.28-3.07-.33-6.03-1.66-10.46-2.95 3.69-1.77 5.84-2.8 8.54-4.09-7.25-13.13-14.37-26.02-20.94-37.91-4.5-.02-8.09-.02-12.3-.02zM1203.51 542.71c11.45 6.15 20.22 18.28 35.68 15.01-.65 2.89-1.11 4.91-1.69 7.52-13.86-4.66-24.07 3.97-35.54 9.72-1.66-3.96-1.33-7.07 2.61-9.15 3.71-1.96 7.49-3.79 11.5-5.81-3.95-6.19-15.46-6.14-12.56-17.29zM865.31 763.23c8.73 3.15 17.5 6.31 26.22 9.45-1.54 6.39-1.89 6.46-11.54 2.01-3.61 9.55-7.2 19.07-10.88 28.82-2.51-1.24-4.1-2.02-6.15-3.02 2.66-7.54 5.08-15.21 8.1-22.64 1.74-4.28.28-6.22-3.5-7.67-4.84-1.85-4.81-1.92-2.25-6.95zM1233.19 596.55c-.5 2.13-.97 4.12-1.6 6.82-9.66-2-19.11-3.96-28.4-5.88-3.27 2.72-.46 9.97-8.9 9.49 1.93-9.51 3.78-18.63 5.69-28.03 2.09.14 3.65.24 5.53.37-.4 3.63-.75 6.78-1.2 10.85 9.24 2.04 18.85 4.17 28.88 6.38zM837.51 789.82c3.46-7.35 6.98-14.83 10.48-22.32.82-1.76 1.54-3.57 2.4-5.31 2.66-5.45 3.52-5.6 8.71-1.34-4.23 8.75-8.73 17.46-12.64 26.42-1.96 4.49-4.12 5.98-8.95 2.55zM1225.95 623.21c-.37 5.73-1.8 7.24-7.28 5.01-9.25-3.76-19-6.28-28.87-9.42.95-2.45 1.75-4.49 2.6-6.68 11.47 3.79 22.6 7.47 33.55 11.09zM1119.28 768.53c-1.87 1.29-3.66 2.52-5.77 3.98-6.84-10.18-13.36-19.86-19.98-29.7 2.05-1.46 3.63-2.59 5.73-4.09 6.51 9.7 13 19.37 20.02 29.81zM786.14 322.03c3.03 7.53 5.57 15.29 9.21 22.51 3.63 7.19 8.35 13.83 12.99 21.34-.08.09-1 1.15-2.28 2.62-5.58-5.87-9.77-13.61-20.53-12.31 8.95-8.09 3.28-16.01 1.57-23.88-.72-3.33-1.39-6.68-2.08-10.02.37-.09.74-.18 1.12-.26z"/><path d="M1206.44 407.68c-1.56-6.4 3.04-9.96 4.76-15.24 2.83 6.02.5 13.32-4.76 15.24zM782.45 325.27c-5.42 4.39-9.11-.33-13.28-1.24 4.38-1.25 8.91-4.47 13.28 1.24zM919.92 286.56c-6.74.54-9.97-1.52-12.88-7.59 4.8 1.6 9.7 2.13 12.88 7.59zM902.78 265.62c8.72-.42 11.93 1.2 13.1 5.97-5.89 1.79-8.27-3.13-13.1-5.97zM773.51 336.1c3.52 0 7.05-.13 10.55.11.68.05 1.26 1.58 1.88 2.42-1.28.77-2.74 2.37-3.81 2.15-3.02-.63-5.88-2.02-8.8-3.11l.18-1.57zM812.35 594.54c4.86-5.5 4.67-9.63.06-11.58-1.27-.54-3.02.18-4.47-.07-1.32-.23-2.99-.71-3.65-1.67-.4-.58.7-2.36 1.37-3.46.58-.96 2.15-1.73 2.16-2.59.06-6.35 4.15-6.26 8.81-6.28 3.13-.01 6.25-1.15 9.38-1.78.03-.53.07-1.06.1-1.58-1.7-.51-3.37-1.32-5.1-1.45-3.15-.24-6.34.12-9.48-.16-1.34-.12-2.6-1.19-3.89-1.83.7-1.34 1.13-3.55 2.16-3.88 4.67-1.48 9.45-2.96 14.29-3.47 13.51-1.44 27.06-2.52 40.61-3.53 11.3-.84 22.62-1.37 34.6-2.07-.57 3.12-.71 5.93-1.64 8.43-1.37 3.67.46 4.81 3.43 5.42 1.91.39 3.91.48 5.75 1.07 1.85.59 3.56 1.64 5.17 3.4-16.53 5.37-33.72 6.58-49.84 11.87.07.65.13 1.3.2 1.95 1.62.24 3.24.73 4.85.69 11.28-.26 22.55-.72 33.83-.86 1.62-.02 3.26 1.31 4.89 2.02-1.46 1.29-2.76 3.4-4.4 3.7-5.78 1.06-11.67 1.5-17.52 2.18-11.39 1.31-22.78 2.67-34.18 3.93-10.92 1.21-21.84 2.39-32.78 3.39-1.34.1-2.79-1.03-4.71-1.79zm77.2-30.05c.06-.44.12-.89.19-1.33-1.39-.39-2.77-1.08-4.17-1.1-6.31-.12-12.63-.22-18.92.07-1.56.07-3.05 1.64-4.58 2.51 1.79.78 3.56 2.19 5.36 2.22 4.24.06 8.49-.43 12.72-.89 3.15-.34 6.27-.98 9.4-1.48zM1011.19 559.9c-3.57-2.38-2.77-5.44.96-8.77-2.97-.45-5.43-.56-7.71-1.27-1.16-.36-2-1.77-2.98-2.7 1.08-.72 2.18-2.08 3.25-2.07 8.59.14 17.18.57 25.77.85 3.18.1 6.37-.06 9.56.06 7.6.28 15.18.73 22.78.97 12.42.4 24.84.75 37.26.98 3.42.06 4.52 1.48 3.63 4.66-.66 2.33-1.35 4.66-2.14 7.37-12.7.97-25.47 1.95-38.23 2.93.01.58.02 1.16.02 1.73 1.12.45 2.2 1.19 3.35 1.29 5.08.46 10.18.77 15.28 1.05 3.7.2 7.54-.82 10.61 2.67.79.89 3.28.41 4.98.34 4.47-.19 4.87 1.2 3.86 5.4-1.51 6.27-5.2 7.34-10.72 6.68-3.28-.39-6.65-.03-9.98-.08-20.99-.34-41.98-.64-62.97-1.07-8.51-.17-13.94-5.27-12.52-12.53.59-3.06 3.83-5.6 5.94-8.49zM969 631h-43.84c-6.22 0-6.99-.89-7.19-7.15-.18-5.59-.6-11.18-.96-16.76-.32-4.95 1.67-7.08 6.77-7.08 18.98-.01 37.96 0 56.95 0 1.33 0 2.69.14 3.99-.07 6.86-1.13 7.16-.8 7.33 6.22.11 4.6.69 9.19.92 13.79.19 3.79.45 7.58-2.82 10.6-.88.82-1.04 2.67-1.1 4.06-.14 3.66.01 7.33-.06 10.99-.13 6.45-4.62 11.33-10.38 11.41-4.78.06-9.44-5.29-9.58-11.18-.12-4.69-.03-9.38-.03-14.83zm-13.99-25h-19.97c-11.48 0-11.48 0-12.04 11.56-.01.17 0 .33-.01.5-.41 6.41.06 6.93 6.57 6.94 13.31.01 26.63-.01 39.94.01 6.08.01 7.06 1.89 6.12 8.06-.74 4.83-.38 9.86-.01 14.77.06.82 2.71 2.05 4.1 1.97 1.13-.07 2.97-1.73 3.09-2.84.41-3.81.16-7.69.25-11.54.12-4.97-1.53-10.42 3.89-13.99.62-.41.95-1.72.91-2.59-.15-2.76-.85-5.52-.76-8.25.11-3.45-1.09-4.72-4.61-4.65-9.16.17-18.32.05-27.47.05z"/></g></svg>