<svg xmlns="http://www.w3.org/2000/svg" viewBox="0 0 781.5 209.5"><style>path{fill:#b71c1c}@media(prefers-color-scheme:dark){path{fill:#d32f2f}}</style><path d="M321.3 103c-4.9-2-5.5-4.2-10.1 0h-15c1.8-25.3-8.7-23.8 20.8-23.3v-2.3c-4.9-2-5.5-4.2-10.2 0h-10.7V57.6h-6.7V103h-22.1c4.1 6 43.5.5 54 2.3 0-.1.1-2.4 0-2.3zM425 108h6.7V81.5c4 4.2 3.7 8.7 8.3 6.2 4-5.9-10.5-6.7-8.3-12h8.2v-2.3h-8.2c-.6-9.6-.3-8.1 7.8-11.4l-5.8-4.4s-7.4 5.1-18.4 7.8v2c6.3.6 10.8-5.6 9.6 6h-9.6v2.3h8.2c-.5 1.9-4.1 13.9-9.2 21.1 2.3 3.2 5.5-3.5 10.7-10.7V108z"/><path d="M469.1 91.8L469.1 89.6 460.8 89.6 460.8 57.6 454 57.6 454 89.6 435.5 89.6 435.5 91.8 454 91.8 454 108 460.8 108 460.8 91.8z"/><path d="M448 71.8c1.4 1 3 .8 3.7-.4 3.3-4.7-10-8.2-10-8.2l-.9 1.1c5.6 4.7 5.3 6.2 7.2 7.5M442.4 75.7l-1 1.1c4.9 5 4.5 6.5 6.2 8.1 1.2 1.1 2.9 1.1 3.8.1 3.9-4.5-9-9.3-9-9.3M589.2 75.4h21.7c-.1 0 .1-2.4-.1-2.3h.1c-4.8-2-5.6-4.1-10.2 0-21.3 1.4-10.2-2.7-12.7-15.5-13.5-1.9-5.5 6-8.2 15.5h-21.4v2.3h21.1c-2.7 22.4-18.9 24.9-21.1 32.5 18.6-4.5 25.7-19.4 28.4-31.9 1.4 22.3 19 31.9 19 31.9 1.8-5.3 7.2-4.4 7.2-4.4v-1.9c-17-5.7-23.1-24.1-23.8-26.2M682.6 68.8c-11.3-6-3.9 1.3-16.6 0 1.7-1.6 5-4.8 8.4-9.5-12.1-4.6-6.2-1-12.5 9.5h-16.5c6.7-4-10.9-13.4-10.9-10 6.4 6.2 5 8 8.6 10-2.1-.4-10.7 1.4-10.1-2.4h-1.8c-10 17.5 5.5 18.2 3.1 4.7h40.4l-1.8 7.7c2.9 1.5 7.9-6.4 9.5-7.7.2 0 .1-2.2.2-2.3z"/><path d="M653.3 66.5c1.3 1.1 3 1.1 4 .1 4-4.4-9.9-10.2-9.9-10.2l-1 1.1c4.9 5.1 5.1 7.4 6.9 9M660 100V90h20.3s-.1-2.3.1-2.3c-4.8-2-5.7-4.1-10.1 0H660v-3.5c1.3-1.4 9.8-5.6 8.2-8.3-.7 1.2-32.3-2.7-28.7 2.3h21.2l-7.4 5.9c-.1-.2 0 3.5-.1 3.5-.9 1-28-2.4-24.7 2.3h24.7c-.2 13.6 2.6 11.3-11.7 10.6v1.9c9.4 1 8.1 5.5 8.1 5.5 10.3-1.2 10.4-7.9 10.4-7.9M508.3 80.6v-2.5c-1.9.8-4 1.5-5.9 2.2v-9.9h5.9v-2.3h-5.9V57.7c-10.4-.8-5.8 1.4-6.7 10.5h-7.8v2.3h7.8c.2 11.8 1.6 12.6-9.3 14.1 1.7 8.1 3.3 5.1 9.3 2.6v12.4-.5c1.2 4.7-8.2.5-7.2 3.9 10.2 3.8-.8 5.6 13.9 4.9 1.1-6.3-4-25.7 5.9-27.3"/><path d="M541.9 101.3c-25.6-3.5-5.4-13.5-3.8-21.2.1.1 0-2.3.1-2.3h-12.5v-7.4h15.7v-2.3c-4.8-2-5.7-4.1-10.1 0h-5.6V57.7H519v10.5h-9.1v2.3c8.8.5 9.7-2.8 9.1 7.5h-9.1c.2.9-.6 2.7 1.1 2.3 10 21.3 6.4 16.9-7.6 25.7 1.5 5.7 16.3-4 19.3-6.2 7.2 6.4 14.6 8.4 14.6 8.4 1.4-5.7 5.2-3.8 4.6-6.9zm-28-21.1h15.3c-6.3 16.7-11.8 8.5-15.3 0M389 71.7h-25.4c.2-7.4 26.2-3.4 30.1-4.3 0 0 .1-2.3 0-2.3-4.9-2-5.5-4.2-10.1 0h-15.5c4.4-6.5 1.9-6.1-4.4-7.5 0 0-1.8 11.3-8.2 20.2 1.9 1.7 1.2 1.2 4.1-1.4-.8 6 2.9 8.3-5.4 7.6v2.3h5.4v13.4c.8-.5 8 1.2 6.7-1.2h16c1.1 5.9-10.3 2.9-13.2 3.5-1.5 3 7.8.7 8.3 6 0 0 11.6-.1 11.6-9.6h4.8c.8-3.7-2.5-1.9-4.8-2.3v-9.9h4.8c.8-3.7-2.5-1.9-4.8-2.3V71.7zm-6.7 24.4H379c3.7-4.2-9.9-11-10-8.1 5 5.2 4.4 6.5 6.4 8.1-12.1.5-8.4.2-9-9.9 15.8 1.2 16.5-5 15.9 9.9zm0-12.2h-3.4c4.3-4.2-8.9-9.3-8.9-9.3l-1 1.1c5.1 5.3 4.4 6.5 6.5 8.2-12.2.5-8.6.3-9-9.9 15.8 1.2 16.4-5 15.8 9.9zM350.6 66.7c1.2 1.1 2.9 1.1 3.8.1 3.8-4.3-9-9.1-9-9.1l-1 1.1c4.8 5 4.4 6.4 6.2 7.9M346.1 77.9c1.2 1.1 2.9 1.1 3.8.1 3.8-4.3-9-9.1-9-9.1l-1 1.1c4.9 5 4.5 6.4 6.2 7.9"/><path d="M356.9 65.1c-3.7 6.5-7.2 26-16.3 22.5-.9 4.6 5.2.4 5.5 14.2-.1 7.1-.7 6.2 4.4 6.1-.9-16.6 2.1-26.8 8.6-42.8h-2.2zM276 137c-9.1-4 5.9-11.8 7.8-1.9h2.8c-.5-15.2-29.6-2.6-12.3 5.2 20.8 3.8-.3 16.4-3.5 3.2h-2.6c4.2 20.4 35.7-2.1 7.8-6.5M630.4 140.5c-7.1-2.9 4.9-6.4 5.5-.9h2.1c.3-6.6-12.6-7.2-12.8-.5-1.1 4.8 10.8 4.7 10.2 8.1-.5 2.9-8.6 3.2-8.7-1.6h-2.1c2.1 14 26.7.1 5.8-5.1M301.2 134.3c-2.3-.1-4.1 1.2-5.1 2.6v-8.4h-3.7v22.6h3.7c-2.3-19.2 10-19.7 7.4 0h3.7c-.7-5 2.8-17.5-6-16.8M492.4 134.3c-2.3-.1-4.1 1.2-5.1 2.6v-8.4h-3.7v22.6h3.7c-2.3-19.2 10-19.7 7.4 0h3.7c-.6-5 2.8-17.5-6-16.8M384.1 134.3c-2.3-.1-4.1 1.2-5.1 2.6v-8.4h-3.7v22.6h3.7c-2.3-19.2 10-19.7 7.4 0h3.7c-.6-5 2.8-17.5-6-16.8M342.1 134.3c-2.3-.1-4.1 1.4-5.3 2.9.5-3.4-1.1-2.3-3.5-2.4v16.3h3.7c.5-3.6-2.2-14.3 4.1-14.5 5.4-.2 2.6 11.4 3.3 14.5h3.7c-.7-5 2.8-17.5-6-16.8M550.4 134.3c-2.3 0-4.1 1.1-5.3 2.9.2-3.5-.8-2.3-3.6-2.5V151h3.7c-2.3-19.2 10-19.8 7.4 0h3.7c-.5-4.8 2.9-17.4-5.9-16.7M365.9 137c-4.1-6-13.5-1.1-12.8 5.5-1 7 8.3 12.1 12.8 5.7 2 6.1-6.4 10.2-9.3 4.3h-2.9c1.4 8.1 17.1 6.2 15.9-2.3v-15.5c-2.2.2-4.2-1-3.7 2.3zm-4.5 11.7c-6-.2-6.1-11.9 0-12.1 6.1.1 6.1 12 0 12.1M416.4 134.7H420.09999999999997V151H416.4zM416.4 128.5c3.8-.1 4-.5 3.7 3.4-3.8.1-4 .5-3.7-3.4zM443.4 128.5L424.5 128.5 424.5 130.8 431.9 130.8 431.9 151.1 435.9 151.1 435.9 130.8 443.4 130.8zM451.3 134.3c-19 2.6-.6 29.1 7.8 11.7h-2.7c-2.3 5.6-10.6 3.1-9.6-2.6h12.6c.6-5-2.8-9.1-8.1-9.1m-4.5 6.7c0-5.8 8.8-5.6 8.7 0h-8.7zM598.7 134.3c-19 2.6-.6 29.1 7.8 11.7h-2.7c-2.3 5.6-10.6 3.2-9.6-2.6h12.6c.6-5-2.8-9.1-8.1-9.1m-4.5 6.7c0-5.8 8.8-5.6 8.7 0h-8.7zM471.6 136.6c3.9-.9 3.7 4.4 7.6 3.5-1.3-9.7-17.4-6.5-16 2.9 1.1 17.3 23.8 2.3 13.2 1.9-5.5 13.5-15.2-7.2-4.8-8.3M531.4 141.7c0 3-.2 7.7-5.5 7.7-9.5-.7-4.1-15.3-5.5-20.8h-4.1c.6 7.8-3.7 23.8 9.6 23.1 13.3.6 8.9-15.2 9.6-23.1h-4.1v13.1zM562.5 128.5c3.8-.1 4-.5 3.7 3.4-3.8.1-3.9.5-3.7-3.4zM562.5 134.7H566.2V151H562.5zM579.9 147.3c-.2.2-5.1-12.6-5.2-12.6h-4.1l6.2 16.3h4.4l5.8-16.3h-2.9l-4.2 12.6zM615.6 137.9c-.1-3.7.4-3.2-3.6-3.2V151h3.7c0-4.5-1.2-15.9 6.2-14 1.3-4.7-5.9-1.8-6.3.9M643.3 134.7H647V151H643.3zM643.3 128.5c3.8-.1 4-.5 3.7 3.4-3.8.1-3.9.5-3.7-3.4zM657.9 129.8h-3.7c-.4 2.7 1.6 5.4-2.8 4.7v2.3h2.8V147c-1.4 4.1 8.2 6.5 7.1 1.6-1.9.4-3.7.2-3.3-2.1v-9.6c2.4-.2 3.8.9 3.3-2.3-4.9.6-3.1-1.4-3.4-4.8zM327.3 147.5c3.7-24.6-22-8.1-12.1-7.8.9-4.4 8.1-4.1 8.6-.4 0 2.2-2.3 1.8-5.1 2.3-13.2 1.3-4.1 15.2 5.1 7.9-.5 2.9 1.6 1.8 3.4 2 .1-.9.1-3.1.1-4zm-3.8-1.9c-3.7 9.3-14.8-1.8 0-2.7v2.7zM410.5 147.5c3.7-24.6-22-8.1-12.1-7.8.9-4.4 8.1-4.1 8.6-.4 0 2.2-2.3 1.8-5.1 2.3-13.2 1.3-4 15.2 5.1 7.9-.5 2.9 1.6 1.8 3.4 2 .1-.9.1-3.1.1-4zm-3.7-1.9c-3.7 9.3-14.8-1.8 0-2.7v2.7zM673.3 146.9c-.2.2-5.1-12.2-5.1-12.2H664l7.1 16.3-2.5 6.6h3.3c.2-.5 8.9-22.9 8.9-22.9h-3.1l-4.4 12.2zM155.4 28.3c-107.3 1.9-107.3 155.9 0 157.7 107.3-1.8 107.2-155.9 0-157.7m0 155.2c-103.8-1.8-103.8-150.8 0-152.6 103.8 1.8 103.8 150.8 0 152.6"/><path d="M217.8 107.4c-.9 2.4 1.9 3.4 3.4 4.5-1.7.9-4.6 1.5-4.1 4 2.3-1.4 6.8-3.7 9.7-2.6.7-4.1-1.7.9-9-5.9z"/><path d="M218.6 116.8c-2.6-2-2.5 5.9-3.2 6.8 2.2 1 1.7-1 2.2-2.3l7.6 1.7.4-1.8-7.6-1.7.6-2.7zM214.3 126.6L223.3 129.5 223.9 127.7 214.9 124.9zM219.8 131.1c-2.5-1.4-4.1 2-5.6 3.1-2.2.5-.6-3.7 1.1-2.7 2-5.8-7.6 2-2.4 4.4 2.4 1.2 3.8-2.2 5.5-3.2 2.6 0 .8 4.4-1.5 3.3-1.6 6 8.6-2.3 2.9-4.9M214.1 140.9c-.4.1-.8.2-1.2.4 1.4-2.3-1.6-4.9-3.7-3.5-.9.6-2.8 3.9-3.6 4.9l7.9 5 1-1.6c-8.6-5 2.9-1.6 3.6-5.3-.9.1-3.2 0-4 .1m-2.5-.1c-.9 1.8-1.4 3.3-3.6 1.4.7-1.7 3.2-4.5 3.6-1.4M206.8 153.2c-3.5-2.1-.2-3 1.2-5-1.4-2.4-3.3 1.7-4.4 2.4-3.2-1.7.9-3.4 1.8-5-1.2-2.9-4.8 3.5-5.8 4.1l7.1 6 4.8-5.2c-1.4-2.7-3.6 2-4.7 2.7zM197.3 151.7l2.7 6.6c-1.7-.5-6.4-5.2-7.9-2.4 11.3 6.8 11.7 6.3 6.7-5.5l-1.5 1.3zM189.5 157.4L191 156.4 196.3 163.9 194.7 165zM186 159.5l3 5.4-6.4-3.7-1.6.8 4.4 8.1c3.3-.5-1-4.7-1.3-6.1 1.4.5 6.5 4.9 7.9 2.7-1.1-.6-3.9-10.1-6-7.2zM178.8 163c-4.7.2 3.2 7.5-.9 8.4-4.1 1.7-2.3-8.7-6.2-6.1 2.1 12.6 13.4 9.1 7.1-2.3zM163.6 166.7c.6 3.9.7 3.7-3.3 3.9l-.4-3.5-1.9.2.9 9.1c3.1.4 1.3-2.5 1.5-4.1 4.4-.8 3.7-.3 4.1 3.6l1.9-.2-.9-9.1-1.9.1zM150.4 169.2c1.1-1.2 3.4-.7 3.7 1 6.3-1.5-6.9-6.6-6.4 1.4-.9 4.8 6.7 6.9 8.1 2.1l-1.8-.7c-2.4 5-6.3-1-3.6-3.8M137.4 174.3c1.2-.2 8.1 2.9 7.3-.1-2.4-1-6.3.4-4.7-3.5 1.3-.1 5.4 2.2 5-.6l-4.7-.9.4-2c1.3-.1 5.8 2.3 5.3-.5-10.1-2.8-6.2-.1-8.6 7.6zM130.7 162.4c-1.3 2 .8 1.7 2.1 2.4l-2.6 7.2 1.8.6 2.6-7.2c1.4.3 2.9 1.7 3.2-.5-.1 0-7.1-2.5-7.1-2.5zM123.6 169.2L127.6 161 129.3 161.8 125.3 170zM113.4 163.4c1.6 1.3 2.1.9 3.5-.3 6.2 2.9.3 3.2 4.5 5.2 2.7-12.6 2.5-12.9-8-4.9zm7.1 0l-2.2-1.4 3-2.2-.8 3.6zM115.9 153.7c-2.6 3.1-2.3 3-5.2.4l2.4-2.7-1.5-1.2-6.2 6.9c1.9 2.5 2.8-.8 4.1-1.8 3.7 2.6 2.7 2.5.1 5.3l1.4 1.2 6.2-6.8-1.3-1.3zM104.3 148.4c-3 1.6 1.7 2-.8 3.3-8.3-2.9 4.8-10.5 3.2-2.6 4.8 3.5 1.2-7.1-3.3-5.2-6 1.1-5.2 9.1.5 9.9 3.7-2.6 2.9-2.4.4-5.4zM102.5 139l-5.5 3.1 3.5-6.3-.9-1.6-8.2 4.6c.6 3.2 4.8-1.2 6.2-1.5-.4 1.4-4.8 6.5-2.4 7.8.8-.9 10.5-4.1 7.3-6.1zM96.9 128H86.8c.5 2 1.1 2 3 1.7 3.2 5.9-1.7 2.7.4 6.8.8-1.4 9.3-6.6 6.7-8.5zm-4.5 4l-.9-2.3 3.7-.1-2.8 2.4zM94.9 121.6c-4 1-3.7 1.1-4.4-2.8l3.7-.8-.4-1.8-9.2 2c-.1 3 2.7 1 4.4 1 1.2 4.2.7 3.5-3.3 4.4l.4 1.8 9.2-2-.4-1.8zM85.2 114.5c5.1 1.9 3.4-3.8 5.5-5.3 1.5.2 1.4 3.2-.2 3.2l.2 1.8c7.6-3.2-2.3-12.5-3.5-1.6-2.3 1.1-2.8-3.5-.3-3.6-1.1-5-5.8 4-1.7 5.5M132.1 116.2h1.3c-.5.6 1.3 9.9-1.3 8.4v-8.4zM135 113.8c2.7-1.7.8 8.8 1.3 9.3-2.7 1.7-.7-8.8-1.3-9.3zM140.6 110.7c2.7-1.7.8 9.6 1.3 10.1-2.7 1.6-.7-9.6-1.3-10.1zM137.8 112.2h1.3c-.5.5 1.4 11.4-1.3 9.7v-9.7zM143.4 109.5c2.7-1.7.7 9.9 1.3 10.4-2.7 1.8-.6-9.8-1.3-10.4zM146.3 108.7c2.7-1.7.7 10.1 1.3 10.5h-1.3v-10.5zM129.3 118.8c2.6-1.5.8 6.9 1.3 7.5h-1.3v-7.5zM126.5 122.5c2.5-1.3.9 5 1.3 5.8-2.4 1.3-.8-5.1-1.3-5.8zM123.7 126.2h1.3c-.3 1 1 5-1.3 4.2v-4.2zM120.9 129.3c2.1-.6 1.1 1.8 1.3 2.9-2.1.7-1.1-1.8-1.3-2.9zM118 131.6c1.9-.4 1.2 1 1.3 2.1-1.8.4-1.1-1-1.3-2.1zM115.2 133.5c1.6-.2 1.3.4 1.3 1.6-1.5.2-1.3-.4-1.3-1.6zM177.3 116.2h1.3c-.5.6 1.3 9.9-1.3 8.4v-8.4zM174.5 113.8c2.7-1.7.8 8.8 1.3 9.3-2.7 1.7-.7-8.8-1.3-9.3zM168.8 110.7c2.7-1.7.7 9.6 1.3 10.1-2.7 1.6-.7-9.6-1.3-10.1zM171.7 112.2h1.3c-.5.5 1.4 11.4-1.3 9.7v-9.7zM166 109.5c2.7-1.7.7 9.9 1.3 10.4-2.7 1.8-.7-9.8-1.3-10.4zM163.2 108.7c2.7-1.7.7 10.1 1.3 10.5h-1.3v-10.5zM180.1 118.8c2.6-1.5.8 6.9 1.3 7.5h-1.3v-7.5zM183 122.5c2.5-1.3.9 5 1.3 5.8-2.5 1.3-.9-5.1-1.3-5.8zM185.8 126.2h1.3c-.3 1 1 5-1.3 4.2v-4.2zM188.6 129.3c2.1-.6 1.1 1.8 1.3 2.9-2.1.7-1.1-1.8-1.3-2.9zM191.4 131.6c1.9-.4 1.2 1 1.3 2.1-1.8.4-1.1-1-1.3-2.1zM194.2 133.5c1.6-.2 1.3.4 1.3 1.6-1.4.2-1.3-.4-1.3-1.6zM146.6 149.9c4.8-3.2-1.9-7.6-3.2-2.6l1.4.2c-.2-1.4 2-1.5 2-.2-.3 1.9-3.7 3.1-3.6 5.2h5.1c.5-2-1.7-1.1-2.9-1.3.4-.6.6-.6 1.2-1.3M152.9 145.1c-3.4-.2-3.3 7.5 0 7.4 3.3.2 3.3-7.5 0-7.4m.7 5.5c-1.8 3.2-2.6-4.4-.8-4.4 1.5.3.9 3.5.8 4.4M158.3 146.3c-1 .5-1.4.8-1.2 2 .7-.2 1.3-.6 1.9-1.1.4 1.1-1.1 6.2 1.5 5.3-.6-1.1 1.3-11.1-2.2-6.2M166.1 148.5c3.7-2.4-3-5.3-3.4-1.5l1.3.2c.6-2.6 3.3.7.5.8l-.2 1.1c3.4-.8.7 4.5-.5 1.2l-1.4.2c.9 4.7 8.3.1 3.7-2"/><path d="M167.4 140.6c-.5-.2-2.2.5-1.8-.7-.5-.2-2.2.5-1.8-.7h-3.7c0-.4 1.6-7.6 1.4-7.9-1-3.2-2.3-9.5-.9-12.6h.9c-.5-.5 1.4-12.4-1.3-10.6v4.1c0-.1-.9-3.8-.9-3.9 1.2-4.1 1.1-11.5-.3-15.7 0-.2 1-7.5 1.1-7.7-1.2-4-1.5-11.4-.5-15.5.7-.9-3.6-.2-3.7-.5-.4-.2.5-8.7-1.1-7.6l-.4 7.6h-3.8l1 8.1c-1 3.9-1.2 11.4-.2 15.5 0 .2-1.6 7.8-1.5 7.9.5 2.6 1.6 9.1.4 11.6-.3-.8.9-5-1.3-4.1.5.5-1.1 12 .9 10.6 2 8.7-2.6 12 .5 20.5h-3.7c.5 1.1-1.2.5-1.8.7.4 1.6-2.3-.3-1.8 1.4.3-.3 25.8 1.3 24.3-.5zm-12-23.8l3.4 6.5H152l3.4-6.5zm0-15.5l3.1 6.5h-6.2l3.1-6.5zm2.5-24.6h-5.1l2.6-6.3 2.5 6.3zm-2.5 9.1l2.9 6.4h-5.7l2.8-6.4zm0 46.5l3.9 6.9h-7.7l3.8-6.9zm.7-1.2c.7-1.4 2.6-4.9 3.3-6.2.4 4.9 4.1 6.9-3.3 6.2zm0-15.5l3-6.2c.2 4.5 3.9 6.9-3 6.2zM156 100c.4-1 2.3-5 2.7-6.1.2 4.3 3.7 6.8-2.7 6.1zm0-15.5l2.4-6 1.1 6H156zm-3.6-6c.5 1.4 1.9 4.7 2.4 6h-3.5l1.1-6zm-.3 15.5c.5 1.2 2.2 4.8 2.7 6.1-6.4.6-2.9-1.9-2.7-6.1zm-.3 15.4l3 6.2c-7 .7-3.3-1.7-3-6.2zm-.3 15.5l3.3 6.2c-7.5.7-3.7-1.4-3.3-6.2z"/><path d="M175.1 157.9c3 .1 4.6-2.2 5.9-4.7 4.6.8 7.9-1.3 8.8-5.7 4.7-.1 7.5-2.7 7.5-7.3 4.6-.9 6.8-4.1 5.9-8.5 4.3-1.8 5.8-5.3 4.1-9.5 3.8-2.6 4.7-6.2 2.1-10 3.3-3.2 3.3-7.1 0-10.3 2.5-3.8 1.7-7.5-2.1-10.1 1.8-4.2.2-7.7-4.1-9.5.9-4.4-1.3-7.6-5.9-8.5-.1-4.5-2.8-7.2-7.6-7.2-.9-4.4-4.2-6.5-8.8-5.7-1.8-4.1-5.6-5.6-9.8-3.9-2.6-3.8-6.5-4.4-10.4-2-3.3-3.2-7.3-3.2-10.7 0-3.8-2.4-7.8-1.7-10.4 2-4.2-1.6-7.9-.2-9.7 4.1-4.7-.9-7.9 1.3-8.9 5.6-4.7.1-7.5 2.7-7.5 7.3-4.6.9-6.8 4.1-5.9 8.5-4.3 1.8-5.8 5.3-4.1 9.5-3.8 2.6-4.7 6.2-2.1 10-3.3 3.2-3.3 7.1 0 10.3-2.6 3.8-1.7 7.5 2.1 10.1-1.8 4.2-.2 7.7 4.1 9.5-.9 4.4 1.3 7.6 5.9 8.5.1 4.5 2.8 7.2 7.5 7.2.9 4.4 4.2 6.5 8.8 5.7 1.8 4.1 5.6 5.6 9.8 3.9 2.6 3.8 6.5 4.4 10.4 2 3.3 3.2 7.3 3.2 10.7 0 5.9 4.6 8.9-3.1 14.4-1.3m-8.7-2.9c-2.3 0-4.1 1.4-5.8 2.8-3.5-2.2-6.9-2.2-10.4 0-3-2.8-6.3-3.4-10.1-2-2.3-3.2-5.5-4.5-9.5-3.8-1.6-3.7-4.4-5.4-8.6-5.5-.9-3.9-3.3-6.2-7.3-7.1-.1-4-1.9-6.7-5.7-8.3.7-3.9-.5-6.9-4-9.2 1.5-3.7.9-6.9-2-9.8 2.3-3.4 2.3-6.6 0-10 2.9-2.9 3.5-6 2-9.7 3.4-2.3 4.7-5.3 4-9.2 3.8-1.6 5.6-4.3 5.7-8.3 4.1-.9 6.4-3.2 7.3-7.1 4.1-.1 6.9-1.9 8.6-5.5 4.1.7 7.2-.5 9.5-3.8 3.7 1.4 7.2.8 10.1-2 3.5 2.2 6.9 2.2 10.4 0 3 2.8 6.3 3.4 10 2 2.3 3.2 5.5 4.5 9.5 3.8 1.6 3.7 4.4 5.4 8.6 5.5.9 3.9 3.3 6.2 7.3 7.1.1 4 1.9 6.7 5.7 8.3-.7 3.9.5 6.9 4 9.2-1.5 3.8-.9 6.9 2 9.8-2.3 3.4-2.3 6.6 0 10-2.9 2.9-3.5 6-2 9.7-3.4 2.3-4.7 5.3-4 9.2-3.8 1.6-5.6 4.3-5.7 8.3-4.1.8-6.4 3.2-7.3 7.1-4.1.1-6.9 1.9-8.6 5.5-6.1-1.8-8.1 5.2-13.7 3m10.1 1.4c-1.4.5-2.9.2-4.4-.2 2-2.6 4.2-3.5 7.5-3-1 1.5-1.8 2.8-3.1 3.2m9.5-4.9c-.9.7-3 .8-4.4.6 1.5-2.9 3.3-4.1 6.7-4.3-.5 1.5-1.1 3-2.3 3.7m8.5-6.7c-.9.9-2.5 1.2-4.2 1.4.9-3.2 2.4-4.7 5.7-5.5-.3 1.7-.6 3.2-1.5 4.1m6.8-8c-.8 1.1-2.2 1.7-3.8 2.2.2-3.2 1.4-5 4.4-6.5.1 1.7.1 3.2-.6 4.3m5.1-9.2c-.5 1.2-1.9 2.1-3.3 2.9-.5-3.2.4-5.3 3.1-7.2.4 1.6.7 3.1.2 4.3m3.1-10c-.2 1.3-1.4 2.3-2.6 3.5-1.1-3.1-.7-5.2 1.6-7.6.7 1.5 1.3 2.8 1 4.1m-.9-6.5c-1.7-2.9-1.7-5 0-7.8 2.5 2.6 2.5 5.2 0 7.8m.9-14.3c.2 1.3-.3 2.7-1.1 4.1-2.3-2.5-2.7-4.6-1.6-7.7 1.3 1.2 2.5 2.3 2.7 3.6m-3.1-10c.5 1.2.2 2.7-.2 4.3-2.7-2-3.6-4-3.1-7.2 1.5.8 2.8 1.6 3.3 2.9m-5.1-9.3c.7 1.1.8 2.6.6 4.2-3-1.4-4.3-3.2-4.4-6.5 1.6.7 3 1.3 3.8 2.3m-5.4-3.9c-3.3-.8-4.8-2.3-5.7-5.5 3.7.2 5.5 1.8 5.7 5.5M186 62.9c1.1.8 1.7 2.1 2.3 3.7-3.3-.2-5.2-1.4-6.7-4.3 1.5-.2 3.5-.1 4.4.6m-9.5-5c1.2.5 2.2 1.7 3 3.2-3.2.5-5.5-.4-7.5-3 1.7-.4 3.1-.7 4.5-.2m-10.3-3c1.3.2 2.4 1.4 3.6 2.6-3.3 1.1-5.3.7-7.9-1.5 1.6-.8 3-1.3 4.3-1.1m-6.7.8c-3 1.7-5.1 1.7-8.1 0 2.7-2.4 5.4-2.3 8.1 0m-14.8-.8c1.2-.2 2.8.3 4.3 1.1-2.6 2.3-4.7 2.6-7.9 1.5 1.1-1.3 2.2-2.3 3.6-2.6m-10.4 3c1.4-.5 2.9-.2 4.4.2-1.9 2.6-4.2 3.5-7.5 3 .9-1.4 1.8-2.7 3.1-3.2m-9.6 5c.9-.7 3-.8 4.4-.6-1.5 2.9-3.3 4.1-6.7 4.3.6-1.6 1.2-3.1 2.3-3.7m-8.3 6.6c.9-.9 2.5-1.2 4.2-1.4-.9 3.2-2.4 4.7-5.7 5.5.3-1.7.6-3.2 1.5-4.1m-6.9 8c.8-1.1 2.2-1.7 3.8-2.2-.2 3.2-1.4 5-4.4 6.5-.1-1.6-.1-3.1.6-4.3m-5.1 9.3c.5-1.2 1.8-2.1 3.3-2.9.5 3.2-.4 5.3-3.1 7.2-.3-1.7-.7-3.2-.2-4.3m-3.1 9.9c.2-1.3 1.4-2.4 2.6-3.5 1.1 3.1.7 5.2-1.6 7.6-.7-1.4-1.2-2.8-1-4.1m.8 6.5c1.7 2.9 1.7 5 0 7.8-2.4-2.6-2.4-5.1 0-7.8m-.8 14.4c-.2-1.3.3-2.7 1.1-4.1 2.3 2.5 2.7 4.6 1.6 7.7-1.3-1.2-2.4-2.3-2.7-3.6m3.1 10c-.5-1.2-.2-2.7.2-4.3 2.7 2 3.6 4 3.1 7.2-1.4-.9-2.7-1.7-3.3-2.9m5.1 9.2c-.7-1.1-.8-2.6-.6-4.2 3 1.4 4.3 3.2 4.4 6.5-1.6-.6-3.1-1.2-3.8-2.3m5.4 4c3.3.8 4.8 2.3 5.7 5.5-3.7-.2-5.4-1.9-5.7-5.5m9.8 10.7c-1.1-.8-1.7-2.1-2.3-3.7 3.3.2 5.2 1.4 6.7 4.3-1.4.1-3.4 0-4.4-.6m9.6 4.9c-1.2-.5-2.2-1.7-3-3.2 3.2-.5 5.5.4 7.5 3-1.6.4-3.1.7-4.5.2m10.3 3c-1.3-.2-2.4-1.4-3.6-2.6 3.3-1.1 5.3-.7 7.9 1.5-1.5.8-3 1.4-4.3 1.1m6.7-.8c3-1.7 5.1-1.7 8.1 0-2.7 2.4-5.3 2.4-8.1 0m14.9.8c-1.2.2-2.8-.3-4.3-1.1 2.6-2.3 4.7-2.6 7.9-1.5-1.1 1.3-2.3 2.4-3.6 2.6"/><path d="M127.2 84.3h-4.6c1.2-.2-.3-1.5-.5-2-1.5.5-.2 1.3.2 2-.6.3-5.1-.8-4.1 1 .4-.5 10.4 1.1 9-1zM127.9 90.9h-3.6l1.7-4.5c-2.4-.7-1.5 5.6-4.3 4.5 1 .1-1.4-4.1-1.4-4.5h-1.1l1.9 4.5c-.6.3-4.5-.8-3.7 1 .5-.4 11.9 1.1 10.5-1zM117.2 103.3c1.1 1.4 1.8-1.5 2.3-2l-.9-.5-1.4 2.5zM123.3 102.5c1.7-.3-.3-2-.5-2.6-1.7.2.3 1.9.5 2.6zM125.3 101l2.1 2.5c1.9-.5-1.1-2.5-1.3-3.1 0 .1-.8.6-.8.6zM126.8 98.7c-1.3-.2-4.3.9-3.6-1.5.5-.3 5.5.8 4.4-1-7.9.6-2.3-1.6-5.5-1.7.9 2.8-3.3 1.4-4.7 1.7-1 1.8 4.1.6 4.7 1 .7 2.4-2.3 1.2-3.6 1.5-1.3 2 7.8.5 8.2 1 .1-.1.1-1 .1-1z"/><path d="M124.3 103.6c-5.7.8-1.3-2.2-4.1-2.6-.5 5 .8 3.3 4.8 3.6 2.2-1 .8-2.6-.7-1M141.2 103.4c.5-3.1-1.9-6.3 3.1-5.6V97c-2.6 0-3.4.7-3.1-2.5-1.6-.6-.8 1.8-1 2.5-6.2-.5-8.2 1.2-.4.9-.9 2.4-5 3.2-5.1 5.6.6-.2 3.4-1.7 5.5-4.3-.2 1 .6 4.1-.9 4.4.2 1.3 1.2 1.1 1.9-.2M175.7 105.1c2 1.4.5-9.7.9-9.9h-9.4c.2 0-.8 13.2.9 9.3.2.3 8.5-.8 7.6.6zm-7.7-9c9.3-.2 7.6-1.1 7.6 7.5-9.2.1-7.5 1-7.6-7.5z"/><path d="M173 100.9l.7.8c-1.7.3-1.5-.5-1.4-1.7.7-.2 2.7.5 2.2-.9-1.2-.1-2.6.5-2.2-1.3h2.4c1.1-1.8-5.4-.5-5.8-.9v.9h2.4c.6 2.7-2.6 0-2.2 2.2 1.8 0 2.5-.4 2.2 1.7h-2.6c-1.2 1.8 5.8.5 6.2.9.3-.8-.8-1.8-1.2-2.3l-.7.6zM193.1 84.2c-.6-.4-1.5-2.3-2.2-1 .5.4 1.4 2.3 2.2 1zM188.8 82.7c1.5.5-.3 1.6-.6 2.3l-.7-.5 1.3-1.8zM186.4 84.3l-1.2-1.8c-1.6.3.2 1.7.4 2.3l.8-.5z"/><path d="M182.8 88.5c.6 1.2.8.8 1.9-.3-.5 5 1.2 6.4.9.3.5.5.9 1.6 1.7.6-.9-.9-1.3-1.3-.1-2.1-.9-1.7-2.5 2-.7-1.4.2-.3.3-.8.3-.9h-3.7c-.5 1.4 1.6.8 2.3.9-.8 1.7-2.3 2.8-2.6 2.9"/><path d="M187 88.2c.5.5.6 1.1 1.2.3.2 6.1-1.1 3.3 3 3.5-.2.8.5.5.9.5v-4.2c3.6 1-1.5-1.7-1.5-3.8-1.7-.1-3 4.3-3.6 3.7m4.3 3c-2.4.2-2.3 0-2.2-2.2 2.4-.2 2.3 0 2.2 2.2zm-2.5-3.2c.5-.5.9-1.2 1.3-2 .5.8 1 1.4 1.7 2h-3zM168.6 87.8c-.8.3-2.3.5-1.9 1.7l1.9-.7c.5 2.7-1.4 2.5-.4 3.9 2.7-.7-.2-4.4 2.6-4.7v-1l-1.2.5c-.5-3.1 1.5-.5 1.2-2.6-1.9.5-1.1-1.4-1.2-2.5-1.6-.6-.7 1.8-.9 2.5-.7.2-2.3-.5-1.9.9 2-.2 1.9.1 1.8 2zM172.3 87.3c2.3 3.6.7 1.8.3 5.1 1.8-1.9 2.4-1.1 4.4.1-1.6-4.4-2.4.2-.2-6.2-2.7-.4-4.9 1.4-4.4-2.5.9 0 4.8-.4 2 1.4.9 2.4 2.3-.8 1.8-2.2h-4.8v9.6c1.8 1 .5-4.8.9-5.3zm3.1 0c-.2.7-.5 1.3-.9 1.9-.5-.8-.9-1.5-.9-1.9h1.8zM191.5 103.6c-1.2-.4-1.8-1.5-2.2-2.9h2.9c.5-2.2-3.9.5-3.3-2.3 3.5.2 3.4.3 3.3-3.1h-8c.1.7-.7 12.7 1.8 8.5-1.2-.2-.8-2.3-.9-3.2h3.1c.2 2.6 4.2 5.9 4.7 2.3-.9 0-.9.2-1.4.7m-6.4-3.8c-.5-2.1 1.6-1.2 2.8-1.4.9 2-1.7 1.3-2.8 1.4zm0-3.6c.9.5 7.6-1.2 6.2 1.4-.9-.5-7.6 1.1-6.2-1.4zM136.1 87.5c2.5-.5 1.6.9 1.8 2.5-2.8 1.4.2 2.3.9 0-.1-2.7 1-3.9-2.7-3.5v-1.4c4.4-.6 3.7.9 4.6 4.1-.8 1.1-2 1.5-1.7 2.9.8-.5 1.5-1.1 2.2-1.9.4 1.2 3.3 3.4 3 .8-2.3.5-2.1-2.9-.6-4.6-1.3-.4-1.5.8-2.1 1.7-2.1-5.6 2.3-1.3 2.4-4-.5-.8-1.1-2.3-2.3-1.8l1.1 1.8c-1.7.3-2.3-.2-1.9-1.9-1.4-.2-1 .4-1 1.9H135c-.2 2.4.6 5.4-1.3 7.6 1.8 1.5 2-.4 2.4-4.2M105.5 71.8c-1 .6-1.9 1.2-1.4 2.6l-2 3.8c-5.9-3.3-7.6-1.7-3.3-8.4-.5-.8-1.7.6-2.2.8.6 1.1-.7 3.2-1.2 4.1L90 72l-.9 1.7 12.1 6.2c.2.3-4.1 6-2.4 5.8-.4-.4 8.7-14.2 6.7-13.9zM140.6 46.5c-.6 1.5 5.1-.6 5.5-.4.7 1.6-.2 5.7 2.9 4.2-.1-2.3-2.6-5 1.4-5 .3-1.3-2-.1-2.5-.2L146 36l-1.9.4 1.9 9.1-5.4 1z"/><path d="M144.1 40.4c.7-1.5-3.3-1.8-3.3-1.8l-.2.4c2.2 1 2.1 2.5 3.5 1.4M144.8 44.2c.9-1.4-3.1-2.1-3.1-2.1l-.2.4c2 1.2 1.8 2.7 3.3 1.7"/><path d="M136.1 40.4c.9 2.6-.2 2.2-2.3 2.6-.3 1.3 1.9.2 2.5.2.2 1.4-2.7 12 1.1 2.9l1.3 6.2 1.9-.4-1.6-7.5c1.4 1 1.6 2.3 2.7 1.3.8-1.9-3.4-1.4-3.1-2.9 3.2-.3 3-1.6-.2-.7-.8-2-.2-2.8 1.6-3.7l-1.9-.9s-1.8 1.9-4.8 3.2c0 1.2.9.2 2.8-.3M213.7 69.8c.9-2.3 6 9.6 6.5 9.5-.4.4-3.2.3-1.9 1.3.5 0 3.3.9 3.6.3 0-1.1 0-2.3-1.4-2.5l-.9-1.6c.6.2 1.9.5 3.7.8-.7-5.8-3.2 2.7-6.6-5.8 1.9 1.2 2-4.6 1.1-4.1-.7 2.4-1.4 2.3-1.4 3.5-.2-.5-1.9-2.6-.8-2.9l-.2-.5c-4.6-.1-5.4 3.2-1.7 2"/><path d="M218.9 74.3c1.7.4 1.3-3.9 1.3-3.9l-.5-.1c-.6 2.5-2.3 2.9-.8 4M206.9 78.3c5.5 5 4.8-4.9 9.1 5 0 0 .6-.4.6-.3 0-1.1 0-2.3-1.4-2.5-.2-.8-2.4-2.8-.5-3 .5.1 2.9 1.7 3.3.8-.4 0-3.9-8.4-4.7-6.8l3 5.2c-.8-.2-2.9-1.4-3.5-.5-.4-.1-3.3-7.3-4.1-5.7l3.5 6.1c-3.4 1.9-2.7 2.1-4.4-1.4-1.1 1.1.7 2.7-.9 3.1M172.9 43.3c-7.2-2.2 3.8 5.9-6.5 6.8.2 1.7 4.8 0 5.9-.5 3 3.8 3.2 3.2 5.2 2.3-6.5-4.2-.3-3.8.7-7.4-2-.7-4.4 0-3-2.9.4-.2 5.1 1.9 4.7.5-.9-.8-1.7-1.5-2.9-.7-4.1-.4 1.8-3.5-2.7-3.8l-.8 3c-.5.1-3-1.3-2.7 0 2.3.5 3 .1 2.1 2.7zm-.2 4.1c-1.2-1.8-1.4-3.4-1.4-3.8l4.3 1.1c-.9 1.1-1.9 2-2.9 2.7"/><path d="M163.6 50.1c.3.1 2 .5 2.4.6l1.7-6.8c1.2-.5 2-.2 2.1-1.2-.6.1-1.2.2-1.8.2.8-5.2 1.9-1 2.6-3-2.6 0-1.1-2-.9-3.4-2.6-1.1-2 .8-2.6 2.6-2.9-1-3.2.2-.2.7-.5 2.9-1.1 3.8-3.7 3.4-.2 2 .9 1.8 2.5 1.4l-.9 3.5V48c.2 1-1.8.4-2.3.2l-.1.4c1.4.3 1.2 1.5 1.2 1.5M109.7 53.7c.1-1.7-3.7-.5-3.7-.5v.5c2.4.1 2.8 1.5 3.7 0M107 56.5v.5c6.5 1.9 3.3-2.3 0-.5M124.6 54c-.4-1-1 .1-1.6.3-.5-1.1-2.8-2.3-.8-3.1-.4-1-1 0-1.6.3-2.7-5.1-4.5-.2-7.9 1.7-1.3-1.7 5.4-5.3 6.1-6.2-.2-.9-1.9-.2-2.4-.1l-.4 1.4-3.5 2.7c0-2-.9-1.7-2.4-1 .7-.1 2.1 8.7 2.6 5 3 2.9-.6 1.7.6 3.2l1.2-1c.5.6 2 2.5 2.5 3.1.1-.2 2.1-1.1 1.3-1.4 3-2.9 6.9-4 1.2.4.2 1 1.9-1.2 3-.1 0 0 2.6-2 .9-4.2l1.2-1zm-10.8-.8l3.7-2.8c.2.7 2.9 2.4 1.1 2.9-.5-2.1-7.9-.4-.8.6-2.4 2.1-2.3 1.4-4-.7zm7 2.9c-.3-2-7.9-.5-.8.6-2.3 2.1-2.3 1.4-3.9-.7 2.6-1.5 3.2-4.3 5.5-.5l-.8.6z"/><path d="M110.4 60.8c.9.5 3.7 1.1 5.1 3.7 2.4-.8-1.2-2.9-2.2-4.8-.7-1-2.6-6.4-2.9-7.3-1.4 1.7 3.4 7.5 0 8.4M204 58.3c-.5-1.1-.9-2.1-2.3-1.8l-3.1-2.4c2.6-2.7 4.1-3.2 1.2-4.8-1 1.4-1.9 2.6-3 3.5l-4.9-3.8c-1.6.5 4.4 3.8 4.4 4.2-4.8 4.6-9 2.4-10.9 3.7 5.1 2.3 9.6.1 12.5-2.3-3.9 5.3-1.7 10.6-1.7 10.6 1.4-.9 2.5.3 2.5.3-1.3-3.9-1-10-.1-10.6.4 0 5.3 5.1 5.4 3.4z"/></svg>