<?xml version="1.0" encoding="utf-8"?>
<!-- Generator: Adobe Illustrator 26.0.1, SVG Export Plug-In . SVG Version: 6.00 Build 0)  -->
<svg version="1.1" id="图层_1" xmlns="http://www.w3.org/2000/svg" xmlns:xlink="http://www.w3.org/1999/xlink" x="0px" y="0px"
	 viewBox="0 0 781.5 209.5" style="enable-background:new 0 0 781.5 209.5;" xml:space="preserve">
<style type="text/css">
	.st0{fill:#9D0A12;}
</style>
<g>
	<path class="st0" d="M321.3,103c-4.9-2-5.5-4.2-10.1,0h-15c1.8-25.3-8.7-23.8,20.8-23.3c0,0,0-2.3,0-2.3l0,0c-4.9-2-5.5-4.2-10.2,0
		h-10.7V57.6h-6.7V103h-22.1c4.1,6,43.5,0.5,54,2.3C321.3,105.2,321.4,102.9,321.3,103z"/>
	<path class="st0" d="M425,108h6.7V81.5c4,4.2,3.7,8.7,8.3,6.2c4-5.9-10.5-6.7-8.3-12h8.2v-2.3h-8.2c-0.6-9.6-0.3-8.1,7.8-11.4
		l-5.8-4.4c0,0-7.4,5.1-18.4,7.8v2c6.3,0.6,10.8-5.6,9.6,6h-9.6v2.3h8.2c-0.5,1.9-4.1,13.9-9.2,21.1c2.3,3.2,5.5-3.5,10.7-10.7
		C425,86.1,425,108,425,108z"/>
	<polygon class="st0" points="469.1,91.8 469.1,89.6 460.8,89.6 460.8,57.6 454,57.6 454,89.6 435.5,89.6 435.5,91.8 454,91.8 
		454,108 460.8,108 460.8,91.8 	"/>
	<path class="st0" d="M448,71.8c1.4,1,3,0.8,3.7-0.4c3.3-4.7-10-8.2-10-8.2l-0.9,1.1C446.4,69,446.1,70.5,448,71.8"/>
	<path class="st0" d="M442.4,75.7l-1,1.1c4.9,5,4.5,6.5,6.2,8.1c1.2,1.1,2.9,1.1,3.8,0.1C455.3,80.5,442.4,75.7,442.4,75.7"/>
	<path class="st0" d="M589.2,75.4h21.7c-0.1,0,0.1-2.4-0.1-2.3h0.1c-4.8-2-5.6-4.1-10.2,0c-21.3,1.4-10.2-2.7-12.7-15.5
		c-13.5-1.9-5.5,6-8.2,15.5h-21.4v2.3h21.1c-2.7,22.4-18.9,24.9-21.1,32.5c18.6-4.5,25.7-19.4,28.4-31.9c1.4,22.3,19,31.9,19,31.9
		c1.8-5.3,7.2-4.4,7.2-4.4v-1.9C596,95.9,589.9,77.5,589.2,75.4"/>
	<path class="st0" d="M682.6,68.8c-11.3-6-3.9,1.3-16.6,0c1.7-1.6,5-4.8,8.4-9.5c-12.1-4.6-6.2-1-12.5,9.5h-16.5
		c6.7-4-10.9-13.4-10.9-10c6.4,6.2,5,8,8.6,10c-2.1-0.4-10.7,1.4-10.1-2.4h-1.8c-10,17.5,5.5,18.2,3.1,4.7h40.4l-1.8,7.7
		c2.9,1.5,7.9-6.4,9.5-7.7C682.6,71.1,682.5,68.9,682.6,68.8z"/>
	<path class="st0" d="M653.3,66.5c1.3,1.1,3,1.1,4,0.1c4-4.4-9.9-10.2-9.9-10.2l-1,1.1C651.3,62.6,651.5,64.9,653.3,66.5"/>
	<path class="st0" d="M660,100V90h20.3c0,0-0.1-2.3,0.1-2.3c-4.8-2-5.7-4.1-10.1,0H660v-3.5c1.3-1.4,9.8-5.6,8.2-8.3
		c-0.7,1.2-32.3-2.7-28.7,2.3h21.2l-7.4,5.9c-0.1-0.2,0,3.5-0.1,3.5c-0.9,1-28-2.4-24.7,2.3h24.7c-0.2,13.6,2.6,11.3-11.7,10.6v1.9
		c9.4,1,8.1,5.5,8.1,5.5C659.9,106.7,660,100,660,100"/>
	<path class="st0" d="M508.3,80.6v-2.5c-1.9,0.8-4,1.5-5.9,2.2v-9.9h5.9v-2.3h-5.9V57.7c-10.4-0.8-5.8,1.4-6.7,10.5h-7.8v2.3h7.8
		c0.2,11.8,1.6,12.6-9.3,14.1c1.7,8.1,3.3,5.1,9.3,2.6v12.4v-0.5c1.2,4.7-8.2,0.5-7.2,3.9c10.2,3.8-0.8,5.6,13.9,4.9
		C503.5,101.6,498.4,82.2,508.3,80.6"/>
	<path class="st0" d="M541.9,101.3c-25.6-3.5-5.4-13.5-3.8-21.2c0.1,0.1,0-2.3,0.1-2.3h-12.5v-7.4h15.7c0,0,0-2.3,0-2.3
		c-4.8-2-5.7-4.1-10.1,0h-5.6V57.7H519v10.5h-9.1v2.3c8.8,0.5,9.7-2.8,9.1,7.5h-9.1c0.2,0.9-0.6,2.7,1.1,2.3
		c10,21.3,6.4,16.9-7.6,25.7c1.5,5.7,16.3-4,19.3-6.2c7.2,6.4,14.6,8.4,14.6,8.4C538.7,102.5,542.5,104.4,541.9,101.3z M513.9,80.2
		h15.3C522.9,96.9,517.4,88.7,513.9,80.2"/>
	<path class="st0" d="M389,71.7c-6.1,0-19.2,0-25.4,0c0.2-7.4,26.2-3.4,30.1-4.3c0,0,0.1-2.3,0-2.3l0,0c-4.9-2-5.5-4.2-10.1,0l0,0
		h-15.5c4.4-6.5,1.9-6.1-4.4-7.5c0,0-1.8,11.3-8.2,20.2c1.9,1.7,1.2,1.2,4.1-1.4c-0.8,6,2.9,8.3-5.4,7.6v2.3h5.4
		c0,2.6,0,10.9,0,13.4c0.8-0.5,8,1.2,6.7-1.2h16c1.1,5.9-10.3,2.9-13.2,3.5c-1.5,3,7.8,0.7,8.3,6c0,0,11.6-0.1,11.6-9.6h4.8
		c0.8-3.7-2.5-1.9-4.8-2.3v-9.9h4.8c0.8-3.7-2.5-1.9-4.8-2.3C389,83.9,389,71.7,389,71.7z M382.3,96.1h-3.3c3.7-4.2-9.9-11-10-8.1
		c5,5.2,4.4,6.5,6.4,8.1c-12.1,0.5-8.4,0.2-9-9.9C382.2,87.4,382.9,81.2,382.3,96.1z M382.3,83.9h-3.4c4.3-4.2-8.9-9.3-8.9-9.3
		l-1,1.1c5.1,5.3,4.4,6.5,6.5,8.2c-12.2,0.5-8.6,0.3-9-9.9C382.3,75.2,382.9,69,382.3,83.9z"/>
	<path class="st0" d="M350.6,66.7c1.2,1.1,2.9,1.1,3.8,0.1c3.8-4.3-9-9.1-9-9.1l-1,1.1C349.2,63.8,348.8,65.2,350.6,66.7"/>
	<path class="st0" d="M346.1,77.9c1.2,1.1,2.9,1.1,3.8,0.1c3.8-4.3-9-9.1-9-9.1l-1,1.1C344.8,75,344.4,76.4,346.1,77.9"/>
	<path class="st0" d="M356.9,65.1c-3.7,6.5-7.2,26-16.3,22.5c-0.9,4.6,5.2,0.4,5.5,14.2c-0.1,7.1-0.7,6.2,4.4,6.1
		c-0.9-16.6,2.1-26.8,8.6-42.8C359.3,65.1,356.9,65.1,356.9,65.1z"/>
	<path class="st0" d="M276,137c-9.1-4,5.9-11.8,7.8-1.9h2.8c-0.5-15.2-29.6-2.6-12.3,5.2c20.8,3.8-0.3,16.4-3.5,3.2h-2.6
		C272.4,163.9,303.9,141.4,276,137"/>
	<path class="st0" d="M630.4,140.5c-7.1-2.9,4.9-6.4,5.5-0.9h2.1c0.3-6.6-12.6-7.2-12.8-0.5c-1.1,4.8,10.8,4.7,10.2,8.1
		c-0.5,2.9-8.6,3.2-8.7-1.6h-2.1C626.7,159.6,651.3,145.7,630.4,140.5"/>
	<path class="st0" d="M301.2,134.3c-2.3-0.1-4.1,1.2-5.1,2.6v-8.4h-3.7v22.6h3.7c-2.3-19.2,10-19.7,7.4,0h3.7
		C306.5,146.1,310,133.6,301.2,134.3"/>
	<path class="st0" d="M492.4,134.3c-2.3-0.1-4.1,1.2-5.1,2.6v-8.4h-3.7v22.6h3.7c-2.3-19.2,10-19.7,7.4,0h3.7
		C497.8,146.1,501.2,133.6,492.4,134.3"/>
	<path class="st0" d="M384.1,134.3c-2.3-0.1-4.1,1.2-5.1,2.6v-8.4h-3.7v22.6h3.7c-2.3-19.2,10-19.7,7.4,0h3.7
		C389.5,146.1,392.9,133.6,384.1,134.3"/>
	<path class="st0" d="M342.1,134.3c-2.3-0.1-4.1,1.4-5.3,2.9c0.5-3.4-1.1-2.3-3.5-2.4v16.3h3.7c0.5-3.6-2.2-14.3,4.1-14.5
		c5.4-0.2,2.6,11.4,3.3,14.5h3.7C347.4,146.1,350.9,133.6,342.1,134.3"/>
	<path class="st0" d="M550.4,134.3c-2.3,0-4.1,1.1-5.3,2.9c0.2-3.5-0.8-2.3-3.6-2.5v16.3h3.7c-2.3-19.2,10-19.8,7.4,0h3.7
		C555.8,146.2,559.2,133.6,550.4,134.3"/>
	<path class="st0" d="M365.9,137c-4.1-6-13.5-1.1-12.8,5.5c-1,7,8.3,12.1,12.8,5.7c2,6.1-6.4,10.2-9.3,4.3h-2.9
		c1.4,8.1,17.1,6.2,15.9-2.3v-15.5C367.4,134.9,365.4,133.7,365.9,137z M361.4,148.7c-6-0.2-6.1-11.9,0-12.1
		C367.5,136.7,367.5,148.6,361.4,148.7"/>
	<rect x="416.4" y="134.7" class="st0" width="3.7" height="16.3"/>
	<path class="st0" d="M416.4,128.5c3.8-0.1,4-0.5,3.7,3.4C416.3,132,416.1,132.4,416.4,128.5z"/>
	<polygon class="st0" points="443.4,128.5 424.5,128.5 424.5,130.8 431.9,130.8 431.9,151.1 435.9,151.1 435.9,130.8 443.4,130.8 	
		"/>
	<path class="st0" d="M451.3,134.3c-19,2.6-0.6,29.1,7.8,11.7h-2.7c-2.3,5.6-10.6,3.1-9.6-2.6h12.6
		C460,138.4,456.6,134.3,451.3,134.3 M446.8,141c0-5.8,8.8-5.6,8.7,0H446.8z"/>
	<path class="st0" d="M598.7,134.3c-19,2.6-0.6,29.1,7.8,11.7h-2.7c-2.3,5.6-10.6,3.2-9.6-2.6h12.6
		C607.4,138.4,604,134.3,598.7,134.3 M594.2,141c0-5.8,8.8-5.6,8.7,0H594.2z"/>
	<path class="st0" d="M471.6,136.6c3.9-0.9,3.7,4.4,7.6,3.5c-1.3-9.7-17.4-6.5-16,2.9c1.1,17.3,23.8,2.3,13.2,1.9
		C470.9,158.4,461.2,137.7,471.6,136.6"/>
	<path class="st0" d="M531.4,141.7c0,3-0.2,7.7-5.5,7.7c-9.5-0.7-4.1-15.3-5.5-20.8h-4.1c0.6,7.8-3.7,23.8,9.6,23.1
		c13.3,0.6,8.9-15.2,9.6-23.1h-4.1C531.4,128.5,531.4,141.7,531.4,141.7z"/>
	<path class="st0" d="M562.5,128.5c3.8-0.1,4-0.5,3.7,3.4C562.4,132,562.3,132.4,562.5,128.5z"/>
	<rect x="562.5" y="134.7" class="st0" width="3.7" height="16.3"/>
	<path class="st0" d="M579.9,147.3c-0.2,0.2-5.1-12.6-5.2-12.6h-4.1l6.2,16.3h4.4l5.8-16.3h-2.9L579.9,147.3z"/>
	<path class="st0" d="M615.6,137.9c-0.1-3.7,0.4-3.2-3.6-3.2v16.3h3.7c0-4.5-1.2-15.9,6.2-14C623.2,132.3,616,135.2,615.6,137.9"/>
	<rect x="643.3" y="134.7" class="st0" width="3.7" height="16.3"/>
	<path class="st0" d="M643.3,128.5c3.8-0.1,4-0.5,3.7,3.4C643.2,132,643.1,132.4,643.3,128.5z"/>
	<path class="st0" d="M657.9,129.8h-3.7c-0.4,2.7,1.6,5.4-2.8,4.7v2.3h2.8V147c-1.4,4.1,8.2,6.5,7.1,1.6c-1.9,0.4-3.7,0.2-3.3-2.1
		v-9.6c2.4-0.2,3.8,0.9,3.3-2.3C656.4,135.2,658.2,133.2,657.9,129.8z"/>
	<path class="st0" d="M327.3,147.5c3.7-24.6-22-8.1-12.1-7.8c0.9-4.4,8.1-4.1,8.6-0.4c0,2.2-2.3,1.8-5.1,2.3
		c-13.2,1.3-4.1,15.2,5.1,7.9c-0.5,2.9,1.6,1.8,3.4,2C327.3,150.6,327.3,148.4,327.3,147.5z M323.5,145.6c-3.7,9.3-14.8-1.8,0-2.7
		V145.6z"/>
	<path class="st0" d="M410.5,147.5c3.7-24.6-22-8.1-12.1-7.8c0.9-4.4,8.1-4.1,8.6-0.4c0,2.2-2.3,1.8-5.1,2.3
		c-13.2,1.3-4,15.2,5.1,7.9c-0.5,2.9,1.6,1.8,3.4,2C410.5,150.6,410.5,148.4,410.5,147.5z M406.8,145.6c-3.7,9.3-14.8-1.8,0-2.7
		V145.6z"/>
	<path class="st0" d="M673.3,146.9c-0.2,0.2-5.1-12.2-5.1-12.2H664l7.1,16.3l-2.5,6.6h3.3c0.2-0.5,8.9-22.9,8.9-22.9h-3.1
		L673.3,146.9z"/>
	<path class="st0" d="M155.4,28.3c-107.3,1.9-107.3,155.9,0,157.7C262.7,184.2,262.6,30.1,155.4,28.3 M155.4,183.5
		c-103.8-1.8-103.8-150.8,0-152.6C259.2,32.7,259.2,181.7,155.4,183.5"/>
	<path class="st0" d="M217.8,107.4c-0.9,2.4,1.9,3.4,3.4,4.5c-1.7,0.9-4.6,1.5-4.1,4c2.3-1.4,6.8-3.7,9.7-2.6
		C227.5,109.2,225.1,114.2,217.8,107.4z"/>
	<path class="st0" d="M218.6,116.8c-2.6-2-2.5,5.9-3.2,6.8c2.2,1,1.7-1,2.2-2.3l7.6,1.7l0.4-1.8l-7.6-1.7L218.6,116.8z"/>
	<polygon class="st0" points="214.3,126.6 223.3,129.5 223.9,127.7 214.9,124.9 	"/>
	<path class="st0" d="M219.8,131.1c-2.5-1.4-4.1,2-5.6,3.1c-2.2,0.5-0.6-3.7,1.1-2.7c2-5.8-7.6,2-2.4,4.4c2.4,1.2,3.8-2.2,5.5-3.2
		c2.6,0,0.8,4.4-1.5,3.3C215.3,142,225.5,133.7,219.8,131.1"/>
	<path class="st0" d="M214.1,140.9c-0.4,0.1-0.8,0.2-1.2,0.4c1.4-2.3-1.6-4.9-3.7-3.5c-0.9,0.6-2.8,3.9-3.6,4.9l7.9,5l1-1.6
		c-8.6-5,2.9-1.6,3.6-5.3C217.2,140.9,214.9,140.8,214.1,140.9 M211.6,140.8c-0.9,1.8-1.4,3.3-3.6,1.4
		C208.7,140.5,211.2,137.7,211.6,140.8"/>
	<path class="st0" d="M206.8,153.2c-3.5-2.1-0.2-3,1.2-5c-1.4-2.4-3.3,1.7-4.4,2.4c-3.2-1.7,0.9-3.4,1.8-5c-1.2-2.9-4.8,3.5-5.8,4.1
		l7.1,6l4.8-5.2C210.1,147.8,207.9,152.5,206.8,153.2z"/>
	<path class="st0" d="M197.3,151.7l2.7,6.6c-1.7-0.5-6.4-5.2-7.9-2.4c11.3,6.8,11.7,6.3,6.7-5.5L197.3,151.7z"/>
	<polygon class="st0" points="189.5,157.4 191,156.4 196.3,163.9 194.7,165 	"/>
	<path class="st0" d="M186,159.5l3,5.4l-6.4-3.7l-1.6,0.8l4.4,8.1c3.3-0.5-1-4.7-1.3-6.1c1.4,0.5,6.5,4.9,7.9,2.7
		C190.9,166.1,188.1,156.6,186,159.5z"/>
	<path class="st0" d="M178.8,163c-4.7,0.2,3.2,7.5-0.9,8.4c-4.1,1.7-2.3-8.7-6.2-6.1C173.8,177.9,185.1,174.4,178.8,163z"/>
	<path class="st0" d="M163.6,166.7c0.6,3.9,0.7,3.7-3.3,3.9l-0.4-3.5l-1.9,0.2l0.9,9.1c3.1,0.4,1.3-2.5,1.5-4.1
		c4.4-0.8,3.7-0.3,4.1,3.6l1.9-0.2l-0.9-9.1L163.6,166.7z"/>
	<path class="st0" d="M150.4,169.2c1.1-1.2,3.4-0.7,3.7,1c6.3-1.5-6.9-6.6-6.4,1.4c-0.9,4.8,6.7,6.9,8.1,2.1l-1.8-0.7
		C151.6,178,147.7,172,150.4,169.2"/>
	<path class="st0" d="M137.4,174.3c1.2-0.2,8.1,2.9,7.3-0.1c-2.4-1-6.3,0.4-4.7-3.5c1.3-0.1,5.4,2.2,5-0.6l-4.7-0.9l0.4-2
		c1.3-0.1,5.8,2.3,5.3-0.5C135.9,163.9,139.8,166.6,137.4,174.3z"/>
	<path class="st0" d="M130.7,162.4c-1.3,2,0.8,1.7,2.1,2.4l-2.6,7.2l1.8,0.6l2.6-7.2c1.4,0.3,2.9,1.7,3.2-0.5
		C137.7,164.9,130.7,162.4,130.7,162.4z"/>
	<polygon class="st0" points="123.6,169.2 127.6,161 129.3,161.8 125.3,170 	"/>
	<path class="st0" d="M113.4,163.4c1.6,1.3,2.1,0.9,3.5-0.3c6.2,2.9,0.3,3.2,4.5,5.2C124.1,155.7,123.9,155.4,113.4,163.4z
		 M120.5,163.4l-2.2-1.4l3-2.2L120.5,163.4z"/>
	<path class="st0" d="M115.9,153.7c-2.6,3.1-2.3,3-5.2,0.4l2.4-2.7l-1.5-1.2l-6.2,6.9c1.9,2.5,2.8-0.8,4.1-1.8
		c3.7,2.6,2.7,2.5,0.1,5.3l1.4,1.2l6.2-6.8L115.9,153.7z"/>
	<path class="st0" d="M104.3,148.4c-3,1.6,1.7,2-0.8,3.3c-8.3-2.9,4.8-10.5,3.2-2.6c4.8,3.5,1.2-7.1-3.3-5.2c-6,1.1-5.2,9.1,0.5,9.9
		C107.6,151.2,106.8,151.4,104.3,148.4z"/>
	<path class="st0" d="M102.5,139l-5.5,3.1l3.5-6.3l-0.9-1.6l-8.2,4.6c0.6,3.2,4.8-1.2,6.2-1.5c-0.4,1.4-4.8,6.5-2.4,7.8
		C96,144.2,105.7,141,102.5,139z"/>
	<path class="st0" d="M96.9,128H86.8c0.5,2,1.1,2,3,1.7c3.2,5.9-1.7,2.7,0.4,6.8C91,135.1,99.5,129.9,96.9,128z M92.4,132l-0.9-2.3
		l3.7-0.1L92.4,132z"/>
	<path class="st0" d="M94.9,121.6c-4,1-3.7,1.1-4.4-2.8l3.7-0.8l-0.4-1.8l-9.2,2c-0.1,3,2.7,1,4.4,1c1.2,4.2,0.7,3.5-3.3,4.4
		l0.4,1.8l9.2-2L94.9,121.6z"/>
	<path class="st0" d="M85.2,114.5c5.1,1.9,3.4-3.8,5.5-5.3c1.5,0.2,1.4,3.2-0.2,3.2l0.2,1.8c7.6-3.2-2.3-12.5-3.5-1.6
		c-2.3,1.1-2.8-3.5-0.3-3.6C85.8,104,81.1,113,85.2,114.5"/>
	<path class="st0" d="M132.1,116.2h1.3c-0.5,0.6,1.3,9.9-1.3,8.4V116.2z"/>
	<path class="st0" d="M135,113.8c2.7-1.7,0.8,8.8,1.3,9.3C133.6,124.8,135.6,114.3,135,113.8z"/>
	<path class="st0" d="M140.6,110.7c2.7-1.7,0.8,9.6,1.3,10.1C139.2,122.4,141.2,111.2,140.6,110.7z"/>
	<path class="st0" d="M137.8,112.2h1.3c-0.5,0.5,1.4,11.4-1.3,9.7V112.2z"/>
	<path class="st0" d="M143.4,109.5c2.7-1.7,0.7,9.9,1.3,10.4C142,121.7,144.1,110.1,143.4,109.5z"/>
	<path class="st0" d="M146.3,108.7c2.7-1.7,0.7,10.1,1.3,10.5h-1.3V108.7z"/>
	<path class="st0" d="M129.3,118.8c2.6-1.5,0.8,6.9,1.3,7.5h-1.3V118.8z"/>
	<path class="st0" d="M126.5,122.5c2.5-1.3,0.9,5,1.3,5.8C125.4,129.6,127,123.2,126.5,122.5z"/>
	<path class="st0" d="M123.7,126.2h1.3c-0.3,1,1,5-1.3,4.2C123.7,130.5,123.7,126.2,123.7,126.2z"/>
	<path class="st0" d="M120.9,129.3c2.1-0.6,1.1,1.8,1.3,2.9C120.1,132.9,121.1,130.4,120.9,129.3z"/>
	<path class="st0" d="M118,131.6c1.9-0.4,1.2,1,1.3,2.1C117.5,134.1,118.2,132.7,118,131.6z"/>
	<path class="st0" d="M115.2,133.5c1.6-0.2,1.3,0.4,1.3,1.6C115,135.3,115.2,134.7,115.2,133.5z"/>
	<path class="st0" d="M177.3,116.2h1.3c-0.5,0.6,1.3,9.9-1.3,8.4V116.2z"/>
	<path class="st0" d="M174.5,113.8c2.7-1.7,0.8,8.8,1.3,9.3C173.1,124.8,175.1,114.3,174.5,113.8z"/>
	<path class="st0" d="M168.8,110.7c2.7-1.7,0.7,9.6,1.3,10.1C167.4,122.4,169.4,111.2,168.8,110.7z"/>
	<path class="st0" d="M171.7,112.2h1.3c-0.5,0.5,1.4,11.4-1.3,9.7V112.2z"/>
	<path class="st0" d="M166,109.5c2.7-1.7,0.7,9.9,1.3,10.4C164.6,121.7,166.6,110.1,166,109.5z"/>
	<path class="st0" d="M163.2,108.7c2.7-1.7,0.7,10.1,1.3,10.5h-1.3V108.7z"/>
	<path class="st0" d="M180.1,118.8c2.6-1.5,0.8,6.9,1.3,7.5h-1.3V118.8z"/>
	<path class="st0" d="M183,122.5c2.5-1.3,0.9,5,1.3,5.8C181.8,129.6,183.4,123.2,183,122.5z"/>
	<path class="st0" d="M185.8,126.2h1.3c-0.3,1,1,5-1.3,4.2C185.8,130.5,185.8,126.2,185.8,126.2z"/>
	<path class="st0" d="M188.6,129.3c2.1-0.6,1.1,1.8,1.3,2.9C187.8,132.9,188.8,130.4,188.6,129.3z"/>
	<path class="st0" d="M191.4,131.6c1.9-0.4,1.2,1,1.3,2.1C190.9,134.1,191.6,132.7,191.4,131.6z"/>
	<path class="st0" d="M194.2,133.5c1.6-0.2,1.3,0.4,1.3,1.6C194.1,135.3,194.2,134.7,194.2,133.5z"/>
	<path class="st0" d="M146.6,149.9c4.8-3.2-1.9-7.6-3.2-2.6l1.4,0.2c-0.2-1.4,2-1.5,2-0.2c-0.3,1.9-3.7,3.1-3.6,5.2h5.1
		c0.5-2-1.7-1.1-2.9-1.3C145.8,150.6,146,150.6,146.6,149.9"/>
	<path class="st0" d="M152.9,145.1c-3.4-0.2-3.3,7.5,0,7.4C156.2,152.7,156.2,145,152.9,145.1 M153.6,150.6
		c-1.8,3.2-2.6-4.4-0.8-4.4C154.3,146.5,153.7,149.7,153.6,150.6"/>
	<path class="st0" d="M158.3,146.3c-1,0.5-1.4,0.8-1.2,2c0.7-0.2,1.3-0.6,1.9-1.1c0.4,1.1-1.1,6.2,1.5,5.3
		C159.9,151.4,161.8,141.4,158.3,146.3"/>
	<path class="st0" d="M166.1,148.5c3.7-2.4-3-5.3-3.4-1.5l1.3,0.2c0.6-2.6,3.3,0.7,0.5,0.8l-0.2,1.1c3.4-0.8,0.7,4.5-0.5,1.2
		l-1.4,0.2C163.3,155.2,170.7,150.6,166.1,148.5"/>
	<path class="st0" d="M167.4,140.6c-0.5-0.2-2.2,0.5-1.8-0.7c-0.5-0.2-2.2,0.5-1.8-0.7h-3.7c0-0.4,1.6-7.6,1.4-7.9
		c-1-3.2-2.3-9.5-0.9-12.6h0.9c-0.5-0.5,1.4-12.4-1.3-10.6v4.1c0-0.1-0.9-3.8-0.9-3.9c1.2-4.1,1.1-11.5-0.3-15.7
		c0-0.2,1-7.5,1.1-7.7c-1.2-4-1.5-11.4-0.5-15.5c0.7-0.9-3.6-0.2-3.7-0.5c-0.4-0.2,0.5-8.7-1.1-7.6l-0.4,7.6h-3.8l1,8.1
		c-1,3.9-1.2,11.4-0.2,15.5c0,0.2-1.6,7.8-1.5,7.9c0.5,2.6,1.6,9.1,0.4,11.6c-0.3-0.8,0.9-5-1.3-4.1c0.5,0.5-1.1,12,0.9,10.6
		c2,8.7-2.6,12,0.5,20.5h-3.7c0.5,1.1-1.2,0.5-1.8,0.7c0.4,1.6-2.3-0.3-1.8,1.4C143.4,140.8,168.9,142.4,167.4,140.6z M155.4,116.8
		l3.4,6.5H152L155.4,116.8z M155.4,101.3l3.1,6.5h-6.2L155.4,101.3z M157.9,76.7h-5.1l2.6-6.3L157.9,76.7z M155.4,85.8l2.9,6.4h-5.7
		L155.4,85.8z M155.4,132.3l3.9,6.9h-7.7L155.4,132.3z M156.1,131.1c0.7-1.4,2.6-4.9,3.3-6.2C159.8,129.8,163.5,131.8,156.1,131.1z
		 M156.1,115.6l3-6.2C159.3,113.9,163,116.3,156.1,115.6z M156,100c0.4-1,2.3-5,2.7-6.1C158.9,98.2,162.4,100.7,156,100z M156,84.5
		l2.4-6l1.1,6H156z M152.4,78.5c0.5,1.4,1.9,4.7,2.4,6h-3.5L152.4,78.5z M152.1,94c0.5,1.2,2.2,4.8,2.7,6.1
		C148.4,100.7,151.9,98.2,152.1,94z M151.8,109.4l3,6.2C147.8,116.3,151.5,113.9,151.8,109.4z M151.5,124.9l3.3,6.2
		C147.3,131.8,151.1,129.7,151.5,124.9z"/>
	<path class="st0" d="M175.1,157.9c3,0.1,4.6-2.2,5.9-4.7c4.6,0.8,7.9-1.3,8.8-5.7c4.7-0.1,7.5-2.7,7.5-7.3c4.6-0.9,6.8-4.1,5.9-8.5
		c4.3-1.8,5.8-5.3,4.1-9.5c3.8-2.6,4.7-6.2,2.1-10c3.3-3.2,3.3-7.1,0-10.3c2.5-3.8,1.7-7.5-2.1-10.1c1.8-4.2,0.2-7.7-4.1-9.5
		c0.9-4.4-1.3-7.6-5.9-8.5c-0.1-4.5-2.8-7.2-7.6-7.2c-0.9-4.4-4.2-6.5-8.8-5.7c-1.8-4.1-5.6-5.6-9.8-3.9c-2.6-3.8-6.5-4.4-10.4-2
		c-3.3-3.2-7.3-3.2-10.7,0c-3.8-2.4-7.8-1.7-10.4,2c-4.2-1.6-7.9-0.2-9.7,4.1c-4.7-0.9-7.9,1.3-8.9,5.6c-4.7,0.1-7.5,2.7-7.5,7.3
		c-4.6,0.9-6.8,4.1-5.9,8.5c-4.3,1.8-5.8,5.3-4.1,9.5c-3.8,2.6-4.7,6.2-2.1,10c-3.3,3.2-3.3,7.1,0,10.3c-2.6,3.8-1.7,7.5,2.1,10.1
		c-1.8,4.2-0.2,7.7,4.1,9.5c-0.9,4.4,1.3,7.6,5.9,8.5c0.1,4.5,2.8,7.2,7.5,7.2c0.9,4.4,4.2,6.5,8.8,5.7c1.8,4.1,5.6,5.6,9.8,3.9
		c2.6,3.8,6.5,4.4,10.4,2c3.3,3.2,7.3,3.2,10.7,0C166.6,163.8,169.6,156.1,175.1,157.9 M166.4,155c-2.3,0-4.1,1.4-5.8,2.8
		c-3.5-2.2-6.9-2.2-10.4,0c-3-2.8-6.3-3.4-10.1-2c-2.3-3.2-5.5-4.5-9.5-3.8c-1.6-3.7-4.4-5.4-8.6-5.5c-0.9-3.9-3.3-6.2-7.3-7.1
		c-0.1-4-1.9-6.7-5.7-8.3c0.7-3.9-0.5-6.9-4-9.2c1.5-3.7,0.9-6.9-2-9.8c2.3-3.4,2.3-6.6,0-10c2.9-2.9,3.5-6,2-9.7
		c3.4-2.3,4.7-5.3,4-9.2c3.8-1.6,5.6-4.3,5.7-8.3c4.1-0.9,6.4-3.2,7.3-7.1c4.1-0.1,6.9-1.9,8.6-5.5c4.1,0.7,7.2-0.5,9.5-3.8
		c3.7,1.4,7.2,0.8,10.1-2c3.5,2.2,6.9,2.2,10.4,0c3,2.8,6.3,3.4,10,2c2.3,3.2,5.5,4.5,9.5,3.8c1.6,3.7,4.4,5.4,8.6,5.5
		c0.9,3.9,3.3,6.2,7.3,7.1c0.1,4,1.9,6.7,5.7,8.3c-0.7,3.9,0.5,6.9,4,9.2c-1.5,3.8-0.9,6.9,2,9.8c-2.3,3.4-2.3,6.6,0,10
		c-2.9,2.9-3.5,6-2,9.7c-3.4,2.3-4.7,5.3-4,9.2c-3.8,1.6-5.6,4.3-5.7,8.3c-4.1,0.8-6.4,3.2-7.3,7.1c-4.1,0.1-6.9,1.9-8.6,5.5
		C174,150.2,172,157.2,166.4,155 M176.5,156.4c-1.4,0.5-2.9,0.2-4.4-0.2c2-2.6,4.2-3.5,7.5-3C178.6,154.7,177.8,156,176.5,156.4
		 M186,151.5c-0.9,0.7-3,0.8-4.4,0.6c1.5-2.9,3.3-4.1,6.7-4.3C187.8,149.3,187.2,150.8,186,151.5 M194.5,144.8
		c-0.9,0.9-2.5,1.2-4.2,1.4c0.9-3.2,2.4-4.7,5.7-5.5C195.7,142.4,195.4,143.9,194.5,144.8 M201.3,136.8c-0.8,1.1-2.2,1.7-3.8,2.2
		c0.2-3.2,1.4-5,4.4-6.5C202,134.2,202,135.7,201.3,136.8 M206.4,127.6c-0.5,1.2-1.9,2.1-3.3,2.9c-0.5-3.2,0.4-5.3,3.1-7.2
		C206.6,124.9,206.9,126.4,206.4,127.6 M209.5,117.6c-0.2,1.3-1.4,2.3-2.6,3.5c-1.1-3.1-0.7-5.2,1.6-7.6
		C209.2,115,209.8,116.3,209.5,117.6 M208.6,111.1c-1.7-2.9-1.7-5,0-7.8C211.1,105.9,211.1,108.5,208.6,111.1 M209.5,96.8
		c0.2,1.3-0.3,2.7-1.1,4.1c-2.3-2.5-2.7-4.6-1.6-7.7C208.1,94.4,209.3,95.5,209.5,96.8 M206.4,86.8c0.5,1.2,0.2,2.7-0.2,4.3
		c-2.7-2-3.6-4-3.1-7.2C204.6,84.7,205.9,85.5,206.4,86.8 M201.3,77.5c0.7,1.1,0.8,2.6,0.6,4.2c-3-1.4-4.3-3.2-4.4-6.5
		C199.1,75.9,200.5,76.5,201.3,77.5 M195.9,73.6c-3.3-0.8-4.8-2.3-5.7-5.5C193.9,68.3,195.7,69.9,195.9,73.6 M186,62.9
		c1.1,0.8,1.7,2.1,2.3,3.7c-3.3-0.2-5.2-1.4-6.7-4.3C183.1,62.1,185.1,62.2,186,62.9 M176.5,57.9c1.2,0.5,2.2,1.7,3,3.2
		c-3.2,0.5-5.5-0.4-7.5-3C173.7,57.7,175.1,57.4,176.5,57.9 M166.2,54.9c1.3,0.2,2.4,1.4,3.6,2.6c-3.3,1.1-5.3,0.7-7.9-1.5
		C163.5,55.2,164.9,54.7,166.2,54.9 M159.5,55.7c-3,1.7-5.1,1.7-8.1,0C154.1,53.3,156.8,53.4,159.5,55.7 M144.7,54.9
		c1.2-0.2,2.8,0.3,4.3,1.1c-2.6,2.3-4.7,2.6-7.9,1.5C142.2,56.2,143.3,55.2,144.7,54.9 M134.3,57.9c1.4-0.5,2.9-0.2,4.4,0.2
		c-1.9,2.6-4.2,3.5-7.5,3C132.1,59.7,133,58.4,134.3,57.9 M124.7,62.9c0.9-0.7,3-0.8,4.4-0.6c-1.5,2.9-3.3,4.1-6.7,4.3
		C123,65,123.6,63.5,124.7,62.9 M116.4,69.5c0.9-0.9,2.5-1.2,4.2-1.4c-0.9,3.2-2.4,4.7-5.7,5.5C115.2,71.9,115.5,70.4,116.4,69.5
		 M109.5,77.5c0.8-1.1,2.2-1.7,3.8-2.2c-0.2,3.2-1.4,5-4.4,6.5C108.8,80.2,108.8,78.7,109.5,77.5 M104.4,86.8
		c0.5-1.2,1.8-2.1,3.3-2.9c0.5,3.2-0.4,5.3-3.1,7.2C104.3,89.4,103.9,87.9,104.4,86.8 M101.3,96.7c0.2-1.3,1.4-2.4,2.6-3.5
		c1.1,3.1,0.7,5.2-1.6,7.6C101.6,99.4,101.1,98,101.3,96.7 M102.1,103.2c1.7,2.9,1.7,5,0,7.8C99.7,108.4,99.7,105.9,102.1,103.2
		 M101.3,117.6c-0.2-1.3,0.3-2.7,1.1-4.1c2.3,2.5,2.7,4.6,1.6,7.7C102.7,120,101.6,118.9,101.3,117.6 M104.4,127.6
		c-0.5-1.2-0.2-2.7,0.2-4.3c2.7,2,3.6,4,3.1,7.2C106.3,129.6,105,128.8,104.4,127.6 M109.5,136.8c-0.7-1.1-0.8-2.6-0.6-4.2
		c3,1.4,4.3,3.2,4.4,6.5C111.7,138.5,110.2,137.9,109.5,136.8 M114.9,140.8c3.3,0.8,4.8,2.3,5.7,5.5
		C116.9,146.1,115.2,144.4,114.9,140.8 M124.7,151.5c-1.1-0.8-1.7-2.1-2.3-3.7c3.3,0.2,5.2,1.4,6.7,4.3
		C127.7,152.2,125.7,152.1,124.7,151.5 M134.3,156.4c-1.2-0.5-2.2-1.7-3-3.2c3.2-0.5,5.5,0.4,7.5,3
		C137.2,156.6,135.7,156.9,134.3,156.4 M144.6,159.4c-1.3-0.2-2.4-1.4-3.6-2.6c3.3-1.1,5.3-0.7,7.9,1.5
		C147.4,159.1,145.9,159.7,144.6,159.4 M151.3,158.6c3-1.7,5.1-1.7,8.1,0C156.7,161,154.1,161,151.3,158.6 M166.2,159.4
		c-1.2,0.2-2.8-0.3-4.3-1.1c2.6-2.3,4.7-2.6,7.9-1.5C168.7,158.1,167.5,159.2,166.2,159.4"/>
	<path class="st0" d="M127.2,84.3h-4.6c1.2-0.2-0.3-1.5-0.5-2c-1.5,0.5-0.2,1.3,0.2,2c-0.6,0.3-5.1-0.8-4.1,1
		C118.6,84.8,128.6,86.4,127.2,84.3z"/>
	<path class="st0" d="M127.9,90.9h-3.6l1.7-4.5c-2.4-0.7-1.5,5.6-4.3,4.5c1,0.1-1.4-4.1-1.4-4.5h-1.1l1.9,4.5
		c-0.6,0.3-4.5-0.8-3.7,1C117.9,91.5,129.3,93,127.9,90.9z"/>
	<path class="st0" d="M117.2,103.3c1.1,1.4,1.8-1.5,2.3-2l-0.9-0.5L117.2,103.3z"/>
	<path class="st0" d="M123.3,102.5c1.7-0.3-0.3-2-0.5-2.6C121.1,100.1,123.1,101.8,123.3,102.5z"/>
	<path class="st0" d="M125.3,101l2.1,2.5c1.9-0.5-1.1-2.5-1.3-3.1C126.1,100.5,125.3,101,125.3,101z"/>
	<path class="st0" d="M126.8,98.7c-1.3-0.2-4.3,0.9-3.6-1.5c0.5-0.3,5.5,0.8,4.4-1c-7.9,0.6-2.3-1.6-5.5-1.7
		c0.9,2.8-3.3,1.4-4.7,1.7c-1,1.8,4.1,0.6,4.7,1c0.7,2.4-2.3,1.2-3.6,1.5c-1.3,2,7.8,0.5,8.2,1C126.8,99.6,126.8,98.7,126.8,98.7z"
		/>
	<path class="st0" d="M124.3,103.6c-5.7,0.8-1.3-2.2-4.1-2.6c-0.5,5,0.8,3.3,4.8,3.6C127.2,103.6,125.8,102,124.3,103.6"/>
	<path class="st0" d="M141.2,103.4c0.5-3.1-1.9-6.3,3.1-5.6V97c-2.6,0-3.4,0.7-3.1-2.5c-1.6-0.6-0.8,1.8-1,2.5
		c-6.2-0.5-8.2,1.2-0.4,0.9c-0.9,2.4-5,3.2-5.1,5.6c0.6-0.2,3.4-1.7,5.5-4.3c-0.2,1,0.6,4.1-0.9,4.4
		C139.5,104.9,140.5,104.7,141.2,103.4"/>
	<path class="st0" d="M175.7,105.1c2,1.4,0.5-9.7,0.9-9.9h-9.4c0.2,0-0.8,13.2,0.9,9.3C168.3,104.8,176.6,103.7,175.7,105.1z
		 M168,96.1c9.3-0.2,7.6-1.1,7.6,7.5C166.4,103.7,168.1,104.6,168,96.1z"/>
	<path class="st0" d="M173,100.9l0.7,0.8c-1.7,0.3-1.5-0.5-1.4-1.7c0.7-0.2,2.7,0.5,2.2-0.9c-1.2-0.1-2.6,0.5-2.2-1.3h2.4
		c1.1-1.8-5.4-0.5-5.8-0.9v0.9h2.4c0.6,2.7-2.6,0-2.2,2.2c1.8,0,2.5-0.4,2.2,1.7h-2.6c-1.2,1.8,5.8,0.5,6.2,0.9
		c0.3-0.8-0.8-1.8-1.2-2.3C173.7,100.3,173,100.9,173,100.9z"/>
	<path class="st0" d="M193.1,84.2c-0.6-0.4-1.5-2.3-2.2-1C191.4,83.6,192.3,85.5,193.1,84.2z"/>
	<path class="st0" d="M188.8,82.7c1.5,0.5-0.3,1.6-0.6,2.3l-0.7-0.5L188.8,82.7z"/>
	<path class="st0" d="M186.4,84.3l-1.2-1.8c-1.6,0.3,0.2,1.7,0.4,2.3L186.4,84.3z"/>
	<path class="st0" d="M182.8,88.5c0.6,1.2,0.8,0.8,1.9-0.3c-0.5,5,1.2,6.4,0.9,0.3c0.5,0.5,0.9,1.6,1.7,0.6
		c-0.9-0.9-1.3-1.3-0.1-2.1c-0.9-1.7-2.5,2-0.7-1.4l0,0c0.2-0.3,0.3-0.8,0.3-0.9h-3.7c-0.5,1.4,1.6,0.8,2.3,0.9
		C184.6,87.3,183.1,88.4,182.8,88.5"/>
	<path class="st0" d="M187,88.2c0.5,0.5,0.6,1.1,1.2,0.3c0.2,6.1-1.1,3.3,3,3.5c-0.2,0.8,0.5,0.5,0.9,0.5v-4.2
		c3.6,1-1.5-1.7-1.5-3.8C188.9,84.4,187.6,88.8,187,88.2 M191.3,91.2c-2.4,0.2-2.3,0-2.2-2.2C191.5,88.8,191.4,89,191.3,91.2z
		 M188.8,88c0.5-0.5,0.9-1.2,1.3-2c0.5,0.8,1,1.4,1.7,2H188.8L188.8,88z"/>
	<path class="st0" d="M168.6,87.8c-0.8,0.3-2.3,0.5-1.9,1.7l1.9-0.7c0.5,2.7-1.4,2.5-0.4,3.9c2.7-0.7-0.2-4.4,2.6-4.7v-1l-1.2,0.5
		c-0.5-3.1,1.5-0.5,1.2-2.6c-1.9,0.5-1.1-1.4-1.2-2.5c-1.6-0.6-0.7,1.8-0.9,2.5c-0.7,0.2-2.3-0.5-1.9,0.9
		C168.8,85.6,168.7,85.9,168.6,87.8z"/>
	<path class="st0" d="M172.3,87.3c2.3,3.6,0.7,1.8,0.3,5.1c1.8-1.9,2.4-1.1,4.4,0.1c-1.6-4.4-2.4,0.2-0.2-6.2
		c-2.7-0.4-4.9,1.4-4.4-2.5c0.9,0,4.8-0.4,2,1.4c0.9,2.4,2.3-0.8,1.8-2.2h-4.8v9.6C173.2,93.6,171.9,87.8,172.3,87.3z M175.4,87.3
		c-0.2,0.7-0.5,1.3-0.9,1.9c-0.5-0.8-0.9-1.5-0.9-1.9H175.4z"/>
	<path class="st0" d="M191.5,103.6c-1.2-0.4-1.8-1.5-2.2-2.9h2.9c0.5-2.2-3.9,0.5-3.3-2.3c3.5,0.2,3.4,0.3,3.3-3.1h-8
		c0.1,0.7-0.7,12.7,1.8,8.5c-1.2-0.2-0.8-2.3-0.9-3.2h3.1c0.2,2.6,4.2,5.9,4.7,2.3C192,102.9,192,103.1,191.5,103.6 M185.1,99.8
		c-0.5-2.1,1.6-1.2,2.8-1.4C188.8,100.4,186.2,99.7,185.1,99.8z M185.1,96.2c0.9,0.5,7.6-1.2,6.2,1.4
		C190.4,97.1,183.7,98.7,185.1,96.2z"/>
	<path class="st0" d="M136.1,87.5c2.5-0.5,1.6,0.9,1.8,2.5c-2.8,1.4,0.2,2.3,0.9,0c-0.1-2.7,1-3.9-2.7-3.5v-1.4
		c4.4-0.6,3.7,0.9,4.6,4.1c-0.8,1.1-2,1.5-1.7,2.9c0.8-0.5,1.5-1.1,2.2-1.9c0.4,1.2,3.3,3.4,3,0.8c-2.3,0.5-2.1-2.9-0.6-4.6
		c-1.3-0.4-1.5,0.8-2.1,1.7c-2.1-5.6,2.3-1.3,2.4-4c-0.5-0.8-1.1-2.3-2.3-1.8l1.1,1.8c-1.7,0.3-2.3-0.2-1.9-1.9
		c-1.4-0.2-1,0.4-1,1.9h-4.8c-0.2,2.4,0.6,5.4-1.3,7.6C135.5,93.2,135.7,91.3,136.1,87.5"/>
	<path class="st0" d="M105.5,71.8L105.5,71.8L105.5,71.8c-1,0.6-1.9,1.2-1.4,2.6l-2,3.8c-5.9-3.3-7.6-1.7-3.3-8.4
		c-0.5-0.8-1.7,0.6-2.2,0.8c0.6,1.1-0.7,3.2-1.2,4.1L90,72l-0.9,1.7l12.1,6.2c0.2,0.3-4.1,6-2.4,5.8
		C98.4,85.3,107.5,71.5,105.5,71.8z"/>
	<path class="st0" d="M140.6,46.5c-0.6,1.5,5.1-0.6,5.5-0.4c0.7,1.6-0.2,5.7,2.9,4.2c-0.1-2.3-2.6-5,1.4-5c0.3-1.3-2-0.1-2.5-0.2
		l-1.9-9.1l-1.9,0.4l1.9,9.1L140.6,46.5z"/>
	<path class="st0" d="M144.1,40.4c0.7-1.5-3.3-1.8-3.3-1.8l-0.2,0.4C142.8,40,142.7,41.5,144.1,40.4"/>
	<path class="st0" d="M144.8,44.2c0.9-1.4-3.1-2.1-3.1-2.1l-0.2,0.4C143.5,43.7,143.3,45.2,144.8,44.2"/>
	<path class="st0" d="M136.1,40.4c0.9,2.6-0.2,2.2-2.3,2.6c-0.3,1.3,1.9,0.2,2.5,0.2c0.2,1.4-2.7,12,1.1,2.9l1.3,6.2l1.9-0.4
		l-1.6-7.5c1.4,1,1.6,2.3,2.7,1.3c0.8-1.9-3.4-1.4-3.1-2.9c3.2-0.3,3-1.6-0.2-0.7c-0.8-2-0.2-2.8,1.6-3.7l-1.9-0.9
		c0,0-1.8,1.9-4.8,3.2C133.3,41.9,134.2,40.9,136.1,40.4"/>
	<path class="st0" d="M213.7,69.8c0.9-2.3,6,9.6,6.5,9.5c-0.4,0.4-3.2,0.3-1.9,1.3c0.5,0,3.3,0.9,3.6,0.3c0-1.1,0-2.3-1.4-2.5l0,0
		l-0.9-1.6c0.6,0.2,1.9,0.5,3.7,0.8c-0.7-5.8-3.2,2.7-6.6-5.8c1.9,1.2,2-4.6,1.1-4.1c-0.7,2.4-1.4,2.3-1.4,3.5
		c-0.2-0.5-1.9-2.6-0.8-2.9l-0.2-0.5C210.8,67.7,210,71,213.7,69.8"/>
	<path class="st0" d="M218.9,74.3c1.7,0.4,1.3-3.9,1.3-3.9l-0.5-0.1C219.1,72.8,217.4,73.2,218.9,74.3"/>
	<path class="st0" d="M206.9,78.3c5.5,5,4.8-4.9,9.1,5c0,0,0.6-0.4,0.6-0.3c0-1.1,0-2.3-1.4-2.5c-0.2-0.8-2.4-2.8-0.5-3
		c0.5,0.1,2.9,1.7,3.3,0.8c-0.4,0-3.9-8.4-4.7-6.8l3,5.2c-0.8-0.2-2.9-1.4-3.5-0.5c-0.4-0.1-3.3-7.3-4.1-5.7l3.5,6.1
		c-3.4,1.9-2.7,2.1-4.4-1.4C206.7,76.3,208.5,77.9,206.9,78.3"/>
	<path class="st0" d="M172.9,43.3c-7.2-2.2,3.8,5.9-6.5,6.8c0.2,1.7,4.8,0,5.9-0.5c3,3.8,3.2,3.2,5.2,2.3c-6.5-4.2-0.3-3.8,0.7-7.4
		c-2-0.7-4.4,0-3-2.9c0.4-0.2,5.1,1.9,4.7,0.5c-0.9-0.8-1.7-1.5-2.9-0.7c-4.1-0.4,1.8-3.5-2.7-3.8l-0.8,3c-0.5,0.1-3-1.3-2.7,0
		C173.1,41.1,173.8,40.7,172.9,43.3z M172.7,47.4c-1.2-1.8-1.4-3.4-1.4-3.8l4.3,1.1C174.7,45.8,173.7,46.7,172.7,47.4"/>
	<path class="st0" d="M163.6,50.1c0.3,0.1,2,0.5,2.4,0.6l1.7-6.8c1.2-0.5,2-0.2,2.1-1.2c-0.6,0.1-1.2,0.2-1.8,0.2
		c0.8-5.2,1.9-1,2.6-3c-2.6,0-1.1-2-0.9-3.4c-2.6-1.1-2,0.8-2.6,2.6c-2.9-1-3.2,0.2-0.2,0.7c-0.5,2.9-1.1,3.8-3.7,3.4
		c-0.2,2,0.9,1.8,2.5,1.4l-0.9,3.5V48c0.2,1-1.8,0.4-2.3,0.2l-0.1,0.4C163.8,48.9,163.6,50.1,163.6,50.1"/>
	<path class="st0" d="M109.7,53.7c0.1-1.7-3.7-0.5-3.7-0.5v0.5C108.4,53.8,108.8,55.2,109.7,53.7"/>
	<path class="st0" d="M107,56.5v0.5C113.5,58.9,110.3,54.7,107,56.5"/>
	<path class="st0" d="M124.6,54c-0.4-1-1,0.1-1.6,0.3c-0.5-1.1-2.8-2.3-0.8-3.1c-0.4-1-1,0-1.6,0.3c-2.7-5.1-4.5-0.2-7.9,1.7
		c-1.3-1.7,5.4-5.3,6.1-6.2c-0.2-0.9-1.9-0.2-2.4-0.1l-0.4,1.4l0,0l-3.5,2.7c0-2-0.9-1.7-2.4-1c0.7-0.1,2.1,8.7,2.6,5
		c3,2.9-0.6,1.7,0.6,3.2l1.2-1c0.5,0.6,2,2.5,2.5,3.1c0.1-0.2,2.1-1.1,1.3-1.4c3-2.9,6.9-4,1.2,0.4c0.2,1,1.9-1.2,3-0.1
		c0,0,2.6-2,0.9-4.2L124.6,54z M113.8,53.2l3.7-2.8c0.2,0.7,2.9,2.4,1.1,2.9c-0.5-2.1-7.9-0.4-0.8,0.6
		C115.4,56,115.5,55.3,113.8,53.2z M120.8,56.1c-0.3-2-7.9-0.5-0.8,0.6c-2.3,2.1-2.3,1.4-3.9-0.7c2.6-1.5,3.2-4.3,5.5-0.5l0,0
		C121.6,55.5,120.8,56.1,120.8,56.1z"/>
	<path class="st0" d="M110.4,60.8c0.9,0.5,3.7,1.1,5.1,3.7c2.4-0.8-1.2-2.9-2.2-4.8c-0.7-1-2.6-6.4-2.9-7.3
		C109,54.1,113.8,59.9,110.4,60.8"/>
	<path class="st0" d="M204,58.3c-0.5-1.1-0.9-2.1-2.3-1.8l0,0l-3.1-2.4c2.6-2.7,4.1-3.2,1.2-4.8c-1,1.4-1.9,2.6-3,3.5l-4.9-3.8
		c-1.6,0.5,4.4,3.8,4.4,4.2c-4.8,4.6-9,2.4-10.9,3.7c5.1,2.3,9.6,0.1,12.5-2.3c-3.9,5.3-1.7,10.6-1.7,10.6c1.4-0.9,2.5,0.3,2.5,0.3
		c-1.3-3.9-1-10-0.1-10.6C199,54.9,203.9,60,204,58.3L204,58.3z"/>
</g>
</svg>
